<?xml version="1.0" encoding="UTF-8"?>
<svg version="1.1" xmlns="http://www.w3.org/2000/svg" width="2426" height="2425">
<path d="M0 0 C1.94324813 -0.00299804 3.88649566 -0.00640204 5.82974243 -0.01017761 C11.07628772 -0.01895976 16.32281667 -0.02135338 21.5693686 -0.0219934 C24.8600209 -0.0227076 28.15066914 -0.02484897 31.44132042 -0.02749062 C42.95844152 -0.03672745 54.4755511 -0.0408279 65.99267578 -0.04003906 C76.66647833 -0.03943988 87.34023007 -0.04996462 98.01401979 -0.06578273 C107.22562354 -0.07893908 116.43721086 -0.08421954 125.64882392 -0.08358365 C131.12900214 -0.08333088 136.60913524 -0.08605792 142.08930397 -0.0967617 C195.42783564 -0.19372147 195.42783564 -0.19372147 219.76635742 4.45776367 C220.94601074 4.67795166 222.12566406 4.89813965 223.34106445 5.125 C251.68393107 10.54639041 279.37073595 19.82796584 305.45385742 32.14526367 C306.3165625 32.55244629 307.17926758 32.95962891 308.06811523 33.37915039 C332.35783257 44.96340643 354.75815238 59.28687872 376.45385742 75.14526367 C377.46834961 75.88260742 378.4828418 76.61995117 379.52807617 77.37963867 C386.00645528 82.15585543 392.17809252 87.2083715 398.28198242 92.44604492 C401.22837768 94.96986035 404.24052766 97.40457708 407.26635742 99.83276367 C411.19503164 103.02694662 414.82475014 106.35580635 418.30932617 110.02807617 C420.16288866 111.85800489 422.05673347 113.54050312 424.03198242 115.23510742 C429.26413004 119.77902128 434.12872927 124.67420349 439.01635742 129.58276367 C439.92321289 130.48575195 440.83006836 131.38874023 441.7644043 132.3190918 C446.29490067 136.85615886 450.68983238 141.44471095 454.86474609 146.31103516 C457.43240066 149.27474521 460.1386556 152.10575448 462.82885742 154.95776367 C467.5039311 159.95417351 471.95857432 165.0574098 476.23510742 170.40307617 C478.18883581 172.81771936 480.19581645 175.17411759 482.23022461 177.52075195 C489.47280919 185.90924872 496.06927424 194.76502566 502.63989258 203.68432617 C504.26209809 205.88511103 505.89417088 208.07816539 507.52807617 210.27026367 C529.11901649 239.47966078 548.77360787 270.43779658 566.45385742 302.14526367 C567.05278809 303.21309082 567.65171875 304.28091797 568.26879883 305.38110352 C583.80551297 333.105796 598.35299769 361.18055707 611.45385742 390.14526367 C611.98575684 391.31234863 612.51765625 392.47943359 613.06567383 393.68188477 C635.64536227 443.22704924 655.09078735 494.02395168 672.39135742 545.64526367 C672.8775354 547.09533813 672.8775354 547.09533813 673.37353516 548.57470703 C675.45385742 554.88555086 675.45385742 554.88555086 675.45385742 557.14526367 C676.73405762 557.40847412 678.01425781 557.67168457 679.33325195 557.94287109 C684.47644011 559.08891508 689.40285758 560.67637213 694.38354492 562.38354492 C695.78660133 562.85882378 695.78660133 562.85882378 697.21800232 563.34370422 C700.25701062 564.37580044 703.29316968 565.4159441 706.32885742 566.45776367 C707.37407562 566.81529724 708.41929382 567.17283081 709.4961853 567.54119873 C760.34071915 584.94848376 809.81458732 605.29339472 858.45385742 628.14526367 C859.45771484 628.61561035 860.46157227 629.08595703 861.49584961 629.57055664 C873.80184817 635.34859195 885.95730719 641.34273245 897.9284668 647.78686523 C900.65712388 649.25459996 903.39145673 650.71146278 906.12573242 652.16870117 C920.43635678 659.82597592 934.50540501 667.84801981 948.45385742 676.14526367 C949.39551758 676.70294434 950.33717773 677.260625 951.30737305 677.83520508 C978.60747182 694.04404751 1005.2603221 711.8148219 1030.45385742 731.14526367 C1031.96399414 732.28995117 1031.96399414 732.28995117 1033.50463867 733.45776367 C1046.70919273 743.49533879 1059.4981715 754.03768141 1072.0246582 764.90698242 C1073.20393358 765.92872563 1074.38871478 766.94411047 1075.57495117 767.95776367 C1087.0124088 777.7964369 1097.77819062 788.37032855 1108.45385742 799.02026367 C1108.94822296 799.51204102 1109.4425885 800.00381836 1109.95193481 800.51049805 C1115.67422212 806.20912824 1121.20492792 812.00554221 1126.45385742 818.14526367 C1127.90831259 819.7529474 1129.36606637 821.35766082 1130.82885742 822.95776367 C1135.08742276 827.68870768 1139.17137186 832.52982012 1143.14038086 837.50610352 C1144.05203298 838.64380469 1144.96980157 839.77662099 1145.89233398 840.90551758 C1166.14510165 865.71676533 1183.63273907 893.26767018 1197.47973633 922.13647461 C1198.49357976 924.22717731 1199.54016546 926.29927959 1200.59057617 928.37182617 C1221.98151918 971.19601465 1231.5894344 1018.88316339 1231.61499023 1066.48583984 C1231.61962808 1068.51451201 1231.62465401 1070.54318331 1231.6300354 1072.57185364 C1231.64307249 1078.05199332 1231.64958781 1083.5321208 1231.65404606 1089.01227355 C1231.65699223 1092.44967988 1231.66109993 1095.88708299 1231.66555023 1099.32448769 C1231.67920523 1110.11854637 1231.68888039 1120.91259755 1231.69275212 1131.70666426 C1231.69722144 1144.09292293 1231.71472539 1156.47907062 1231.74375272 1168.86529559 C1231.76550477 1178.48711813 1231.77546363 1188.10890976 1231.77679324 1197.73075658 C1231.77783208 1203.45471027 1231.78353988 1209.17855939 1231.80161285 1214.9024868 C1231.93930396 1261.11793299 1231.93930396 1261.11793299 1228.45385742 1282.14526367 C1228.33189751 1282.90246138 1228.20993759 1283.65965908 1228.08428192 1284.43980217 C1227.41698855 1288.53496489 1226.64385151 1292.59000057 1225.76635742 1296.64526367 C1225.38616455 1298.43480469 1225.38616455 1298.43480469 1224.99829102 1300.26049805 C1211.47864067 1361.67069148 1179.7798864 1418.32143031 1139.45385742 1466.14526367 C1139.00574707 1466.67829102 1138.55763672 1467.21131836 1138.09594727 1467.76049805 C1136.61572021 1469.51773544 1135.12965944 1471.26986159 1133.64135742 1473.02026367 C1132.98586914 1473.79490967 1132.98586914 1473.79490967 1132.31713867 1474.58520508 C1122.77739543 1485.72501118 1112.55291792 1496.21028292 1102.1706543 1506.55883789 C1100.18835498 1508.53572378 1098.21153109 1510.51797406 1096.23510742 1512.50073242 C1090.14671252 1518.59270329 1084.07058963 1524.62102576 1077.45385742 1530.14526367 C1076.33569307 1531.10636794 1075.21849007 1532.06859189 1074.10229492 1533.03198242 C1072.40665678 1534.48447148 1070.70924367 1535.93485143 1069.01098633 1537.38427734 C1066.03751468 1539.92403682 1063.07387564 1542.47232595 1060.14135742 1545.05932617 C1051.08478987 1553.01002501 1041.53894263 1560.21145892 1031.84790039 1567.3684082 C1029.69582633 1568.96567467 1027.55753339 1570.57866687 1025.42651367 1572.20385742 C1008.88666771 1584.80564482 991.77864188 1596.61333661 974.07836914 1607.5246582 C971.14657684 1609.33500586 968.22418263 1611.16007003 965.30151367 1612.98510742 C951.22075864 1621.74859536 936.9830923 1630.14797541 922.45385742 1638.14526367 C921.49833984 1638.6718457 920.54282227 1639.19842773 919.55834961 1639.7409668 C755.06207431 1730.14526367 755.06207431 1730.14526367 713.45385742 1730.14526367 C713.28321777 1731.80489136 713.28321777 1731.80489136 713.10913086 1733.49804688 C712.46639521 1738.60614435 711.2421958 1743.51809578 709.96948242 1748.50073242 C709.717939 1749.49864304 709.46639557 1750.49655365 709.20722961 1751.52470398 C708.37941348 1754.79578815 707.5427053 1758.06449205 706.70385742 1761.33276367 C706.41485565 1762.46272766 706.12585388 1763.59269165 705.82809448 1764.75689697 C683.70710944 1851.0641571 655.32224612 1935.57360549 594.45385742 2070.14526367 C593.96385254 2071.15395508 593.47384766 2072.16264648 592.96899414 2073.2019043 C586.96825044 2085.53548189 580.52269183 2097.53263076 573.69995117 2109.43041992 C571.06583005 2114.03485425 568.53403385 2118.68564924 566.03417969 2123.36401367 C559.64201901 2135.30548345 552.61725123 2146.77385685 545.33422852 2158.19018555 C543.5028865 2161.06821253 541.6888672 2163.95642106 539.87963867 2166.84838867 C532.59258391 2178.46054507 524.97902091 2189.78745129 517.01879883 2200.94848633 C515.60774344 2202.92924707 514.20637675 2204.91633295 512.80932617 2206.90698242 C503.82615096 2219.66445068 494.29980844 2232.04294888 484.45385742 2244.14526367 C483.77323242 2244.98831055 483.09260742 2245.83135742 482.39135742 2246.69995117 C472.93104637 2258.35640587 463.13347647 2269.62042963 452.83666992 2280.54370117 C450.23464627 2283.30440272 447.66766687 2286.09353263 445.11938477 2288.90380859 C437.69963076 2297.08267493 430.07913459 2305.03958253 421.66870117 2312.21166992 C419.34066088 2314.24408605 417.08252912 2316.33884542 414.82470703 2318.44848633 C408.57135312 2324.28736849 402.16110929 2329.8273054 395.45385742 2335.14526367 C394.41084006 2335.98114051 393.3678733 2336.81708051 392.32495117 2337.65307617 C324.47746369 2391.7671447 245.69215287 2425.32021675 158.10522461 2425.29052734 C156.31433035 2425.29352767 154.52343674 2425.29693217 152.73254395 2425.30070496 C147.90945558 2425.30946455 143.08638501 2425.31187977 138.26328945 2425.31252074 C135.23425301 2425.31323631 132.20522095 2425.31538023 129.17618561 2425.31801796 C118.56333637 2425.32724779 107.95049961 2425.33135619 97.33764648 2425.33056641 C87.52046017 2425.32996762 77.70332915 2425.34048634 67.8861568 2425.35631007 C59.39887577 2425.36949158 50.91161257 2425.37474584 42.42432141 2425.374111 C37.38170499 2425.37385892 32.3391377 2425.37654564 27.29653168 2425.38728905 C-26.02575805 2425.49301277 -26.02575805 2425.49301277 -51.73364258 2420.89526367 C-52.97645996 2420.679104 -54.21927734 2420.46294434 -55.49975586 2420.24023438 C-110.85135564 2410.30669392 -162.31782662 2386.29105504 -207.54614258 2353.14526367 C-208.6109082 2352.36538086 -209.67567383 2351.58549805 -210.77270508 2350.78198242 C-213.71738084 2348.59484198 -216.63718962 2346.37967682 -219.54614258 2344.14526367 C-220.10930176 2343.71358887 -220.67246094 2343.28191406 -221.25268555 2342.8371582 C-228.17325991 2337.5178518 -234.8996736 2332.09084376 -241.33129883 2326.18041992 C-243.31180255 2324.36059199 -245.32240535 2322.58960037 -247.35864258 2320.83276367 C-257.49595681 2311.9794018 -267.18095344 2302.67560174 -276.67797852 2293.14379883 C-278.43757737 2291.37877824 -280.20254655 2289.61925234 -281.96801758 2287.86010742 C-287.70706133 2282.12478604 -293.31933346 2276.3582966 -298.54614258 2270.14526367 C-299.4837508 2269.06219774 -300.42252073 2267.98013622 -301.36254883 2266.89916992 C-313.92806013 2252.32671448 -325.99044166 2237.48006215 -337.421875 2221.99755859 C-339.02176717 2219.84935261 -340.63377512 2217.71341831 -342.25830078 2215.58398438 C-349.71526153 2205.78280806 -356.69181096 2195.72892434 -363.48364258 2185.45776367 C-364.00561218 2184.67123413 -364.52758179 2183.88470459 -365.06536865 2183.07434082 C-373.13561105 2170.91154161 -381.08024206 2158.69092847 -388.54614258 2146.14526367 C-389.08287598 2145.24614258 -389.61960937 2144.34702148 -390.17260742 2143.4206543 C-394.36806962 2136.36909229 -398.47429723 2129.26879915 -402.54614258 2122.14526367 C-403.13137695 2121.12722656 -403.71661133 2120.10918945 -404.31958008 2119.06030273 C-424.06587071 2084.55818684 -441.84665252 2048.66484793 -457.54614258 2012.14526367 C-457.8061908 2011.54266724 -458.06623901 2010.9400708 -458.33416748 2010.31921387 C-465.40919577 1993.92191612 -472.10168807 1977.37589117 -478.67114258 1960.77026367 C-478.99533173 1959.95194061 -479.31952087 1959.13361755 -479.65353394 1958.29049683 C-492.91485015 1924.76478295 -492.91485015 1924.76478295 -486.92504883 1907.31713867 C-482.29912505 1896.67620351 -474.4087516 1888.37333369 -463.60699463 1883.93856812 C-453.23571636 1880.72792846 -443.49101108 1880.59300765 -432.71801758 1880.68432617 C-430.83384325 1880.68671738 -428.9496665 1880.68761449 -427.06549072 1880.68710327 C-423.14221989 1880.69020947 -419.21932012 1880.70660965 -415.29614258 1880.73364258 C-410.29103083 1880.76771316 -405.28632304 1880.77526703 -400.28110886 1880.77375221 C-396.39984347 1880.77429821 -392.5186647 1880.78530055 -388.63742828 1880.7997551 C-386.79241844 1880.8060744 -384.94739891 1880.81005045 -383.10237885 1880.81154251 C-360.13120541 1880.85049472 -360.13120541 1880.85049472 -350.23364258 1886.02026367 C-349.26813477 1886.51268555 -348.30262695 1887.00510742 -347.30786133 1887.51245117 C-338.38290466 1892.78915822 -333.50991291 1900.2446554 -329.77270508 1909.77807617 C-329.51909714 1910.4235289 -329.2654892 1911.06898163 -329.00419617 1911.73399353 C-326.33199129 1918.58933968 -323.81957988 1925.50428055 -321.29589844 1932.4152832 C-307.93599195 1968.96991736 -293.10208915 2004.92087632 -276.54614258 2040.14526367 C-276.03035645 2041.24451172 -275.51457031 2042.34375977 -274.9831543 2043.47631836 C-271.56693287 2050.73037997 -268.07590166 2057.94585644 -264.54614258 2065.14526367 C-263.95772707 2066.34951011 -263.36934953 2067.5537751 -262.78100586 2068.75805664 C-254.99192367 2084.67876439 -246.85517044 2100.29218712 -237.97924805 2115.6418457 C-236.2618663 2118.64185123 -234.60549041 2121.67206525 -232.95458984 2124.70898438 C-215.80462579 2156.14998276 -195.96200264 2186.45294438 -174.54614258 2215.14526367 C-173.525218 2216.52410236 -172.50438606 2217.90300966 -171.48364258 2219.28198242 C-162.40605454 2231.50175701 -153.07260033 2243.46968205 -143.17895508 2255.03979492 C-140.66276041 2257.98946716 -138.22721289 2260.99996785 -135.79614258 2264.02026367 C-132.81316956 2267.68794046 -129.73494596 2271.09113956 -126.32679749 2274.36366272 C-124.55468656 2276.13671515 -122.92639717 2277.9762375 -121.29785156 2279.88134766 C-117.73492487 2283.97961968 -113.98869101 2287.84771267 -110.14379883 2291.68041992 C-109.46240341 2292.36277206 -108.781008 2293.04512421 -108.07896423 2293.74815369 C-106.64908517 2295.17870804 -105.21796347 2296.60802134 -103.78564453 2298.03613281 C-101.61416547 2300.20225441 -99.44807933 2302.37366541 -97.2824707 2304.5456543 C-95.88240056 2305.94506354 -94.48202019 2307.34416251 -93.08129883 2308.74291992 C-92.44458755 2309.38165543 -91.80787628 2310.02039093 -91.15187073 2310.67848206 C-86.77695352 2315.03106534 -82.22196233 2319.11968736 -77.54614258 2323.14526367 C-76.49779703 2324.07068379 -75.45064137 2324.99745661 -74.40551758 2325.92651367 C-64.55360686 2334.58267381 -54.12914728 2342.40997993 -43.54614258 2350.14526367 C-42.47323975 2350.93416992 -42.47323975 2350.93416992 -41.37866211 2351.73901367 C-9.29210226 2375.24722065 42.09111592 2411.53422317 83.45385742 2412.14526367 C87.34588396 2411.32362217 91.06460151 2410.10915434 94.82885742 2408.83276367 C95.92593018 2408.46884521 97.02300293 2408.10492676 98.15332031 2407.72998047 C142.94693403 2392.60913948 183.4736207 2369.47904274 220.45385742 2340.14526367 C221.14205566 2339.6012793 221.83025391 2339.05729492 222.53930664 2338.49682617 C230.92453472 2331.84640558 239.01811593 2324.98860921 246.81494141 2317.65673828 C248.04638472 2316.52105147 249.2934107 2315.40222427 250.54785156 2314.29199219 C257.40013617 2308.22390033 263.90157557 2301.85106604 270.359375 2295.37011719 C272.14560412 2293.57850417 273.9371509 2291.79233313 275.72924805 2290.0065918 C281.5186574 2284.22054406 287.15848959 2278.39290614 292.45385742 2272.14526367 C293.90831259 2270.53757995 295.36606637 2268.93286653 296.82885742 2267.33276367 C300.72627189 2263.0140071 304.42686097 2258.56764316 308.08276367 2254.04370117 C310.15040427 2251.5162064 312.25963808 2249.03175988 314.39111328 2246.55810547 C320.56704799 2239.37130412 326.2719237 2231.89105052 331.88696289 2224.26098633 C333.42612502 2222.18270976 334.98580937 2220.12156195 336.55151367 2218.06323242 C352.71400922 2196.67147828 367.43970862 2173.99330064 381.45385742 2151.14526367 C381.83719238 2150.52200195 382.22052734 2149.89874023 382.61547852 2149.2565918 C405.38223324 2112.11445417 425.91858832 2073.2987818 443.87670898 2033.61010742 C445.45046825 2030.15270936 447.05438736 2026.710724 448.66479492 2023.27026367 C471.03128468 1975.12365961 489.35310506 1924.95071797 505.69989014 1874.47033691 C506.47119528 1872.09179743 507.24659938 1869.71462354 508.02270508 1867.33764648 C515.33945939 1844.8975619 522.08656956 1822.334913 528.40478516 1799.59301758 C528.66950119 1798.64121109 528.93421722 1797.6894046 529.20695496 1796.70875549 C529.70367044 1794.9192856 530.19825501 1793.12922241 530.69038391 1791.33848572 C532.34471052 1785.36355748 532.34471052 1785.36355748 533.45385742 1783.14526367 C532.47368652 1783.36553223 531.49351563 1783.58580078 530.48364258 1783.81274414 C446.89144543 1802.55329221 362.62125583 1816.81759887 277.45385742 1826.14526367 C276.00036896 1826.30508728 276.00036896 1826.30508728 274.51751709 1826.46813965 C268.14372817 1827.16769041 261.76830094 1827.85012436 255.39135742 1828.52026367 C254.58666016 1828.60602661 253.78196289 1828.69178955 252.95288086 1828.78015137 C250.69203481 1829.01955026 248.43056367 1829.25162849 246.16870117 1829.48120117 C244.91178467 1829.61059082 243.65486816 1829.73998047 242.35986328 1829.87329102 C237.71516695 1830.19669821 233.10726296 1830.20195604 228.45385742 1830.14526367 C228.46051926 1831.00002289 228.46718109 1831.8547821 228.4740448 1832.73544312 C228.53438031 1840.82617689 228.57994527 1848.91683411 228.60929394 1857.00774193 C228.62489008 1861.16647383 228.64601639 1865.32501843 228.68017578 1869.48364258 C228.71298692 1873.50369713 228.73075585 1877.52357254 228.73848915 1881.54375076 C228.74399391 1883.07061199 228.75474243 1884.59746442 228.77104759 1886.1242485 C228.92605614 1901.25298342 226.2674681 1912.98006779 215.82885742 1924.39526367 C207.61279397 1932.21479896 197.9574889 1935.31978198 186.89135742 1935.45776367 C185.76890625 1935.50126953 185.76890625 1935.50126953 184.6237793 1935.5456543 C173.93953028 1935.66366214 165.06704793 1930.67756906 156.07885742 1925.39526367 C154.05631537 1924.22964603 152.03283201 1923.06566062 150.00854492 1921.90307617 C148.94603516 1921.29109375 147.88352539 1920.67911133 146.78881836 1920.04858398 C140.963278 1916.7238466 135.08221975 1913.50027176 129.20385742 1910.27026367 C126.73220843 1908.91012185 124.26098342 1907.54921068 121.78979492 1906.18823242 C121.17769165 1905.85122818 120.56558838 1905.51422394 119.93493652 1905.16700745 C110.20889309 1899.8101077 100.50910643 1894.40579444 90.80541992 1889.00854492 C87.41826264 1887.12547496 84.02998746 1885.24443194 80.64135742 1883.36401367 C69.73442909 1877.31076998 58.83457392 1871.24551524 47.95385742 1865.14526367 C30.19237082 1855.1895386 12.40961257 1845.27552654 -5.48486328 1835.56054688 C-12.97326789 1831.48359485 -20.38897535 1827.28429075 -27.80102539 1823.07055664 C-34.67110149 1819.17643149 -41.59310351 1815.38894765 -48.54614258 1811.64526367 C-56.69237081 1807.24603421 -64.82944392 1802.83166384 -72.92114258 1798.33276367 C-74.30172852 1797.57866211 -74.30172852 1797.57866211 -75.71020508 1796.80932617 C-88.18098425 1789.82641912 -98.06721355 1781.81696155 -102.48364258 1767.77026367 C-105.53532686 1754.48311658 -103.28246515 1743.21199168 -96.43676758 1731.66479492 C-90.79927089 1724.15201524 -84.27388224 1719.92086738 -76.04614258 1715.52026367 C-73.79319954 1714.28781002 -71.54060257 1713.05472356 -69.28833008 1711.82104492 C-67.59015137 1710.89799561 -67.59015137 1710.89799561 -65.85766602 1709.95629883 C-60.93070475 1707.26179878 -56.05172482 1704.48509026 -51.17114258 1701.70776367 C-32.93179586 1691.37633043 -14.57426451 1681.25635504 3.78320312 1671.13684082 C15.90762353 1664.45311447 28.0119565 1657.73355975 40.11108398 1651.00415039 C46.85065164 1647.25633647 53.59241007 1643.51246464 60.33374023 1639.76782227 C65.93438214 1636.6566244 71.53452536 1633.5445366 77.13354492 1630.43041992 C88.72946148 1623.98222333 100.33425811 1617.55065395 111.95385742 1611.14526367 C121.06873272 1606.11963233 130.18200144 1601.09112975 139.28442383 1596.04296875 C140.94718698 1595.12111261 142.61066317 1594.20054293 144.27416992 1593.2800293 C150.48453873 1589.83284711 156.63411414 1586.30220517 162.73510742 1582.66455078 C174.31122237 1576.19560652 186.15521834 1574.1331401 199.07885742 1577.70776367 C211.58753722 1581.96221285 219.56532319 1589.821157 225.37573242 1601.42260742 C228.39901916 1609.05750183 228.72726172 1615.95573092 228.64916992 1624.08276367 C228.64634003 1625.20344238 228.64351013 1626.32412109 228.64059448 1627.47875977 C228.62945993 1631.03437278 228.60436756 1634.58972765 228.57885742 1638.14526367 C228.56881894 1640.56583293 228.55969461 1642.98640617 228.55151367 1645.40698242 C228.52954263 1651.31982991 228.49613233 1657.23252834 228.45385742 1663.14526367 C296.06907495 1655.89632734 363.41632928 1647.52127754 430.40112305 1635.68444824 C433.39864687 1635.15501515 436.39691454 1634.62996051 439.39526367 1634.10522461 C464.55243809 1629.68210334 489.52300656 1624.50008561 514.45385742 1618.95776367 C515.45440722 1618.73561377 515.45440722 1618.73561377 516.47517014 1618.50897598 C531.4027693 1615.19252287 546.29923267 1611.79393256 561.09667969 1607.93183899 C562.01118896 1607.69635849 562.92569824 1607.46087799 563.86791992 1607.21826172 C565.05828857 1606.90625069 565.05828857 1606.90625069 566.27270508 1606.5879364 C568.45385742 1606.14526367 568.45385742 1606.14526367 572.45385742 1606.14526367 C572.50492645 1605.41950134 572.55599548 1604.69373901 572.60861206 1603.94598389 C573.16926156 1596.57349837 574.09716783 1589.33293099 575.27416992 1582.03588867 C575.64538166 1579.67715309 576.01612934 1577.31834444 576.38647461 1574.95947266 C576.67814514 1573.11299637 576.67814514 1573.11299637 576.97570801 1571.22921753 C592.88305665 1470.11324319 602.49060097 1367.18203543 603.71459961 1221.74194336 C603.70321822 1215.10608595 603.70998538 1208.47038942 603.72149181 1201.83453751 C603.77352889 1166.23043448 603.01173848 1130.71488088 601.45385742 1095.14526367 C601.41546249 1094.2593561 601.37706757 1093.37344852 601.33750916 1092.46069527 C601.23111228 1090.01231514 601.12338251 1087.56400002 601.01464844 1085.11572266 C600.96888845 1084.08247266 600.96888845 1084.08247266 600.92220402 1083.02834892 C597.68709771 1011.83926518 590.01031284 940.59267086 579.45385742 870.14526367 C579.19345673 868.40750671 579.19345673 868.40750671 578.92779541 866.63464355 C569.90445351 806.70079955 558.56275254 747.09623036 544.45385742 688.14526367 C450.84640468 665.61601233 355.66500768 649.09060986 136.61920166 630.30944824 C133.87978854 630.16735647 131.14119803 630.01575787 128.40258789 629.85913086 C95.19984089 628.02598632 61.8853489 627.93845997 28.64135742 627.95776367 C27.71692966 627.95788326 26.79250191 627.95800285 25.84006119 627.95812607 C-11.31739656 627.96415604 -48.4196108 628.63602666 -85.54614258 630.14526367 C-86.80591919 630.19618164 -88.0656958 630.24709961 -89.36364746 630.29956055 C-182.43402634 634.11721295 -275.24371176 643.93745558 -367.11689758 659.28222656 C-372.33222993 660.14526367 -372.33222993 660.14526367 -374.54614258 660.14526367 C-374.67794922 661.32193604 -374.80975586 662.4986084 -374.94555664 663.7109375 C-375.43173514 667.58363914 -376.21230764 671.30350401 -377.15551758 675.09448242 C-377.49493794 676.48002774 -377.83385745 677.86569581 -378.17236328 679.25146484 C-378.35417145 679.99061127 -378.53597961 680.72975769 -378.72329712 681.49130249 C-400.88458224 772.07382878 -416.78338181 864.75980738 -429.03735352 985.68652344 C-429.13305634 986.71593552 -429.22875916 987.7453476 -429.32736206 988.80595398 C-429.50512143 990.72773292 -429.67925332 992.64985206 -429.84915161 994.57234192 C-429.92688812 995.41479965 -430.00462463 996.25725739 -430.0847168 997.12524414 C-430.15020721 997.85790497 -430.21569763 998.5905658 -430.28317261 999.34542847 C-430.54614258 1001.14526367 -430.54614258 1001.14526367 -431.54614258 1003.14526367 C-430.93607864 1003.13638123 -430.32601471 1003.12749878 -429.69746399 1003.11834717 C-423.28864002 1003.02914389 -416.87999532 1002.96922988 -410.47070312 1002.92553711 C-408.0858645 1002.90554928 -405.70107408 1002.87834972 -403.31640625 1002.84350586 C-384.70956242 1002.57863975 -369.90742793 1002.72740323 -355.55004883 1015.98901367 C-347.92408891 1023.99217161 -344.38957813 1033.75056678 -344.23364258 1044.64526367 C-344.17756836 1046.60979492 -344.17756836 1046.60979492 -344.12036133 1048.61401367 C-344.64596459 1059.27711438 -350.15523909 1068.6770634 -355.35864258 1077.70776367 C-356.02512109 1078.88291386 -356.69045998 1080.05871101 -357.35473633 1081.23510742 C-358.73009957 1083.66876468 -360.11022907 1086.09961971 -361.49389648 1088.52856445 C-364.72397837 1094.20846281 -367.88059611 1099.92924129 -371.04614258 1105.64526367 C-372.29581051 1107.89544812 -373.54581132 1110.14544774 -374.79614258 1112.39526367 C-375.41489258 1113.50901367 -376.03364258 1114.62276367 -376.67114258 1115.77026367 C-397.29614258 1152.89526367 -397.29614258 1152.89526367 -399.17089844 1156.26977539 C-400.42176751 1158.52137229 -401.67258125 1160.77299993 -402.92333984 1163.0246582 C-406.03459167 1168.62547812 -409.14678128 1174.22577272 -412.26098633 1179.82495117 C-418.39120469 1190.84920364 -424.50763827 1201.88073085 -430.59429932 1212.92907715 C-436.46477954 1223.58488715 -442.37059054 1234.21987744 -448.32543945 1244.82885742 C-452.60949607 1252.46332834 -456.86340058 1260.11415181 -461.10864258 1267.77026367 C-467.39927187 1279.1088585 -473.75051883 1290.41165044 -480.1550293 1301.6862793 C-481.4319178 1303.94335564 -482.69678566 1306.20658424 -483.95629883 1308.47338867 C-484.49492554 1309.43571411 -484.49492554 1309.43571411 -485.04443359 1310.41748047 C-485.95492826 1312.0447428 -486.86020321 1313.67492295 -487.76489258 1315.30541992 C-493.70822226 1324.78086 -502.82490799 1332.01776527 -513.80395508 1334.69604492 C-526.40214016 1336.75985017 -537.96477062 1334.94098397 -548.79614258 1328.08276367 C-559.0824805 1320.24555383 -564.38909763 1308.2212179 -570.35473633 1297.07104492 C-573.41495203 1291.35758198 -576.58900923 1285.71474254 -579.79614258 1280.08276367 C-590.08615489 1261.96366556 -600.08645098 1243.68290471 -610.04516602 1225.38012695 C-615.8345762 1214.75583997 -621.72802088 1204.18938338 -627.61401367 1193.6184082 C-629.53849292 1190.15901451 -631.45900713 1186.69745082 -633.37817383 1183.23510742 C-639.20620657 1172.72354001 -645.05249588 1162.22404729 -650.98364258 1151.77026367 C-656.55049851 1141.95528881 -662.01426648 1132.08532399 -667.45507812 1122.20019531 C-668.13384745 1120.96702836 -668.81263977 1119.73387406 -669.49145508 1118.50073242 C-669.82778458 1117.88974197 -670.16411407 1117.27875153 -670.51063538 1116.64924622 C-673.45954358 1111.29553118 -676.4281977 1105.9529572 -679.40112305 1100.61254883 C-681.86396836 1096.18755002 -684.32045181 1091.75903473 -686.77661133 1087.33032227 C-687.95353593 1085.21192294 -689.13321245 1083.0950501 -690.31567383 1080.97973633 C-691.98272208 1077.99701823 -693.64033649 1075.00923341 -695.29614258 1072.02026367 C-695.78566406 1071.15022705 -696.27518555 1070.28019043 -696.77954102 1069.38378906 C-703.223196 1057.69351721 -705.90325933 1046.21265314 -702.48364258 1032.89526367 C-698.04600568 1020.43255443 -689.91458583 1011.96951008 -678.23364258 1006.18823242 C-669.43090394 1002.77205333 -660.97678596 1002.88318622 -651.67114258 1002.94995117 C-650.13558131 1002.95368695 -648.60001764 1002.95653125 -647.06445312 1002.95852661 C-643.04658283 1002.96611864 -639.02885992 1002.98572842 -635.01104736 1003.00793457 C-630.90167229 1003.02848908 -626.79227312 1003.03754876 -622.68286133 1003.04760742 C-614.6372212 1003.06897904 -606.59170029 1003.10306067 -598.54614258 1003.14526367 C-598.47016342 1002.1606012 -598.39418427 1001.17593872 -598.31590271 1000.16143799 C-590.51927035 899.38572485 -573.66398944 799.51788074 -551.54614258 699.14526367 C-641.87616622 723.65992887 -730.70547377 754.03074907 -883.95825195 829.64624023 C-886.66481315 831.21400304 -889.39055341 832.74256655 -892.12426758 834.26245117 C-919.54048877 849.51528606 -945.92507186 866.35637274 -971.42504883 884.62573242 C-972.88193047 885.66942847 -974.34034929 886.7109811 -975.80004883 887.75073242 C-985.92485232 894.96315589 -995.86594237 902.34536809 -1005.54614258 910.14526367 C-1006.47555664 910.89163086 -1007.4049707 911.63799805 -1008.36254883 912.40698242 C-1018.5010589 920.62699714 -1028.42050507 929.12536477 -1038.06958008 937.91479492 C-1040.13099605 939.77136988 -1042.21314408 941.59620533 -1044.30786133 943.41479492 C-1048.62612052 947.18647091 -1052.81621973 951.08325806 -1056.98364258 955.02026367 C-1058.10005127 956.07407227 -1058.10005127 956.07407227 -1059.23901367 957.14916992 C-1066.2848008 963.81747665 -1073.22568136 970.48835069 -1079.54223633 977.86010742 C-1081.60272803 980.20979094 -1083.72030818 982.49516005 -1085.85351562 984.77856445 C-1091.69152124 991.03207677 -1097.20743541 997.45623024 -1102.54614258 1004.14526367 C-1103.47870166 1005.28673476 -1104.41235494 1006.42731252 -1105.34692383 1007.56713867 C-1137.13369228 1046.51961998 -1163.42470138 1091.82743223 -1177.9335022 1140.11462402 C-1178.51782017 1142.05138705 -1179.12909658 1143.97995574 -1179.74169922 1145.90795898 C-1180.80366709 1150.24683218 -1180.04217038 1153.63229667 -1178.57348633 1157.78198242 C-1178.22309799 1158.84546654 -1178.22309799 1158.84546654 -1177.8656311 1159.93043518 C-1177.0951998 1162.23998673 -1176.2919009 1164.53620012 -1175.48364258 1166.83276367 C-1175.07491409 1168.02319275 -1175.07491409 1168.02319275 -1174.65792847 1169.2376709 C-1160.99263781 1209.02477651 -1140.73088913 1245.51004292 -1115.54614258 1279.14526367 C-1114.87373535 1280.04728516 -1114.87373535 1280.04728516 -1114.18774414 1280.9675293 C-1105.71922823 1292.28880038 -1096.611195 1303.02471544 -1087.03051758 1313.41479492 C-1085.10259408 1315.53369198 -1083.22325455 1317.67570991 -1081.35351562 1319.8449707 C-1077.76614801 1323.9482465 -1074.00279881 1327.83364959 -1070.14379883 1331.68041992 C-1069.46240341 1332.36277206 -1068.781008 1333.04512421 -1068.07896423 1333.74815369 C-1066.64908517 1335.17870804 -1065.21796347 1336.60802134 -1063.78564453 1338.03613281 C-1061.61416547 1340.20225441 -1059.44807933 1342.37366541 -1057.2824707 1344.5456543 C-1055.88240056 1345.94506354 -1054.48202019 1347.34416251 -1053.08129883 1348.74291992 C-1052.12623192 1349.70102318 -1052.12623192 1349.70102318 -1051.15187073 1350.67848206 C-1046.77723787 1355.03078243 -1042.22694982 1359.12572877 -1037.54614258 1363.14526367 C-1036.42838174 1364.11856396 -1035.31109595 1365.09241048 -1034.19458008 1366.06713867 C-1027.89593923 1371.52209265 -1021.51343083 1376.82649465 -1014.92944336 1381.93383789 C-1011.16400787 1384.85811445 -1007.46145632 1387.84640132 -1003.78491211 1390.8815918 C-995.40586263 1397.78561587 -986.75885849 1404.22320669 -977.89233398 1410.48608398 C-975.53510849 1412.15306676 -973.18689651 1413.83220681 -970.83911133 1415.51245117 C-957.70583215 1424.86120391 -944.18936841 1433.56294911 -930.54614258 1442.14526367 C-929.19069336 1443.0018457 -929.19069336 1443.0018457 -927.80786133 1443.87573242 C-905.94579513 1457.67472773 -883.4857881 1470.39878012 -860.64526367 1482.50170898 C-857.68738456 1484.07035891 -854.73571678 1485.65020577 -851.78442383 1487.23120117 C-838.11674428 1494.5063931 -824.1711971 1501.07767668 -810.09155273 1507.51293945 C-806.65276975 1509.096172 -803.2284292 1510.70669642 -799.80786133 1512.32885742 C-764.28614203 1529.13674566 -727.59235687 1543.99481297 -690.51489258 1557.00854492 C-689.364646 1557.41282715 -688.21439941 1557.81710937 -687.02929688 1558.23364258 C-685.01971866 1558.9302716 -683.00595542 1559.61503552 -680.98681641 1560.28344727 C-668.23343405 1564.65448537 -658.58585733 1572.81888496 -652.47583008 1584.88745117 C-649.9061228 1591.12816884 -649.25127379 1596.54203466 -649.27148438 1603.2265625 C-649.26637344 1604.10885025 -649.26126251 1604.991138 -649.2559967 1605.90016174 C-649.24215945 1608.80094288 -649.24305331 1611.70148481 -649.24536133 1614.60229492 C-649.24147069 1616.63099759 -649.23713527 1618.65969945 -649.2323761 1620.68840027 C-649.22492612 1624.93584841 -649.22519595 1629.18321343 -649.23046875 1633.43066406 C-649.23625645 1638.85414352 -649.21934321 1644.2772807 -649.19612408 1649.70070362 C-649.18133827 1653.88992783 -649.18052172 1658.07907058 -649.1836338 1662.26831627 C-649.18312286 1664.26684941 -649.17792795 1666.26538738 -649.16782188 1668.26389503 C-649.09627482 1684.39311758 -650.26171454 1697.65946287 -661.92114258 1709.95776367 C-670.93852849 1718.34373526 -680.8070784 1721.77375248 -693.12963867 1721.69433594 C-701.84812763 1721.31714173 -709.50061751 1718.31099368 -717.54614258 1715.14526367 C-718.60043457 1714.73727539 -719.65472656 1714.32928711 -720.7409668 1713.90893555 C-767.76376164 1695.66029267 -814.58465399 1675.45197462 -859.00366211 1651.51000977 C-861.8429885 1649.98592348 -864.69233994 1648.48151919 -867.54223633 1646.97729492 C-882.41074062 1639.09515538 -896.95271569 1630.75217552 -911.36206055 1622.06079102 C-914.32300313 1620.27950321 -917.29395257 1618.51647935 -920.26879883 1616.75854492 C-947.82051675 1600.37165474 -974.30033322 1581.88918432 -999.54614258 1562.14526367 C-1000.68516906 1561.26467177 -1001.82450014 1560.38447374 -1002.96411133 1559.50463867 C-1009.62762432 1554.33932608 -1016.12049745 1549.0189635 -1022.49145508 1543.49658203 C-1026.10068395 1540.36963841 -1029.76246124 1537.32699292 -1033.48364258 1534.33276367 C-1037.14387976 1531.36283438 -1040.5301726 1528.29302373 -1043.79418945 1524.89624023 C-1045.40700648 1523.28432222 -1047.06460349 1521.8309097 -1048.81176758 1520.36791992 C-1055.02643132 1514.96547672 -1060.7720765 1509.06804145 -1066.58251953 1503.23925781 C-1068.60378525 1501.21263387 -1070.63033832 1499.1914082 -1072.6574707 1497.1706543 C-1078.83117841 1491.00046361 -1084.94182679 1484.84545585 -1090.54614258 1478.14526367 C-1091.51831072 1477.02651801 -1092.49224989 1475.9093087 -1093.46801758 1474.79370117 C-1099.91937991 1467.3458418 -1106.15474473 1459.76462634 -1112.1574707 1451.95043945 C-1113.08456386 1450.74528355 -1114.01557421 1449.5431311 -1114.95043945 1448.34399414 C-1140.98006521 1414.93216657 -1161.75985783 1377.19081099 -1175.54614258 1337.14526367 C-1175.86276855 1336.2403418 -1176.17939453 1335.33541992 -1176.50561523 1334.40307617 C-1184.05740908 1312.63498111 -1189.01218299 1290.04380926 -1191.54614258 1267.14526367 C-1191.6339587 1266.36059282 -1191.72177483 1265.57592197 -1191.81225204 1264.76747322 C-1192.78590598 1254.76644972 -1192.70195042 1244.77181361 -1192.70727539 1234.73461914 C-1192.71191213 1232.6863903 -1192.71693792 1230.63816232 -1192.72232056 1228.5899353 C-1192.73536939 1223.05188701 -1192.74187545 1217.51385079 -1192.74633121 1211.97578955 C-1192.74927584 1208.50270905 -1192.7533833 1205.02963175 -1192.75783539 1201.55655289 C-1192.77149429 1190.65249997 -1192.78116721 1179.74845449 -1192.78503728 1168.84439361 C-1192.78950573 1156.32851423 -1192.80700393 1143.81274473 -1192.83603787 1131.29689872 C-1192.85778849 1121.57743263 -1192.86774874 1111.85799713 -1192.8690784 1102.13850701 C-1192.87011746 1096.35529406 -1192.87583001 1090.5721846 -1192.89389801 1084.78899765 C-1193.03130552 1038.17996632 -1193.03130552 1038.17996632 -1189.54614258 1017.14526367 C-1189.42662987 1016.39609869 -1189.30711716 1015.64693371 -1189.18398285 1014.87506676 C-1188.53470528 1010.83426619 -1187.7820954 1006.83380615 -1186.92114258 1002.83276367 C-1186.66880859 1001.64457031 -1186.41647461 1000.45637695 -1186.15649414 999.23217773 C-1171.57427205 933.25672582 -1136.69205641 875.16137325 -1092.98364258 824.45776367 C-1092.51434326 823.9128125 -1092.04504395 823.36786133 -1091.56152344 822.80639648 C-1082.42147332 812.3107331 -1072.82925587 802.2604926 -1062.97192383 792.44067383 C-1061.27932911 790.75350409 -1059.59223661 789.06096172 -1057.90551758 787.36791992 C-1052.28664641 781.74555871 -1046.60850518 776.29326166 -1040.54614258 771.14526367 C-1038.83404874 769.6077743 -1037.12510291 768.06676232 -1035.42114258 766.52026367 C-1025.00447591 757.14526367 -1025.00447591 757.14526367 -1022.54614258 757.14526367 C-1022.54614258 756.48526367 -1022.54614258 755.82526367 -1022.54614258 755.14526367 C-1020.99145508 753.69213867 -1020.99145508 753.69213867 -1018.67114258 751.89526367 C-1017.75461914 751.18112305 -1016.8380957 750.46698242 -1015.89379883 749.73120117 C-1015.3667334 749.32482422 -1014.83966797 748.91844727 -1014.29663086 748.49975586 C-1012.37021853 747.00913722 -1010.45591622 745.50375315 -1008.54223633 743.99682617 C-984.34374658 724.98741997 -959.34855604 707.11769752 -933.23706055 690.82446289 C-930.56643632 689.15792747 -927.90182088 687.48208661 -925.23754883 685.80541992 C-898.78874747 669.22616015 -871.31330845 654.38440939 -843.54614258 640.14526367 C-841.78729736 639.2403418 -841.78729736 639.2403418 -839.99291992 638.31713867 C-819.50967025 627.79854905 -798.69769456 618.20147087 -777.57952881 609.03076172 C-774.5444951 607.70906672 -771.51656225 606.37131153 -768.48754883 605.03588867 C-690.72599784 570.97424324 -609.29104163 545.6353186 -527.14372253 524.6378479 C-525.22497409 524.14440183 -523.30791734 523.64432174 -521.39277649 523.13705444 C-517.26841731 522.0507062 -513.1920438 521.04489009 -508.98217773 520.3515625 C-501.91584318 519.15755245 -501.91584318 519.15755245 -496.64038086 514.62475586 C-495.41016992 511.8006729 -494.46172565 509.03551125 -493.68658447 506.05541992 C-492.96407035 503.29027412 -492.09824837 500.57575253 -491.24032593 497.85012817 C-490.77115309 496.35730174 -490.30877766 494.86232457 -489.85269165 493.365448 C-486.84298805 483.58483539 -482.97907675 474.13628203 -479.17114258 464.64526367 C-478.42955829 462.78462155 -477.68826578 460.92386311 -476.94726562 459.06298828 C-462.34296963 422.45996668 -446.430106 386.67930166 -428.85864258 351.39526367 C-428.34338013 350.35679291 -427.82811768 349.31832214 -427.29724121 348.24838257 C-420.29527837 334.16143242 -412.88037091 320.3760107 -405.03445435 306.74137878 C-403.00341437 303.19856358 -401.00223921 299.63919705 -398.99981689 296.08015442 C-378.28607918 259.31439327 -354.38401539 224.48047661 -328.54614258 191.14526367 C-328.06935059 190.5266748 -327.59255859 189.90808594 -327.10131836 189.27075195 C-318.13313201 177.6406748 -308.66680651 166.47932587 -298.77661133 155.62182617 C-296.91395087 153.55365327 -295.08231571 151.46502279 -293.25708008 149.36401367 C-289.5880198 145.16395027 -285.80990342 141.07712506 -281.98364258 137.02026367 C-281.29399414 136.28888184 -280.6043457 135.5575 -279.89379883 134.80395508 C-262.53862449 116.47533346 -262.53862449 116.47533346 -253.52270508 108.84057617 C-251.03754064 106.70903197 -248.64174112 104.48842768 -246.23364258 102.27026367 C-240.8309239 97.34926888 -235.24097897 92.72200391 -229.54614258 88.14526367 C-228.42558884 87.22170836 -227.30583376 86.29718339 -226.18676758 85.37182617 C-217.09252206 77.90491973 -207.591965 71.19435765 -197.80932617 64.66186523 C-195.71858751 63.26082224 -193.64016957 61.84363911 -191.56567383 60.41870117 C-182.83696533 54.45241502 -173.85430824 49.15342952 -164.54614258 44.14526367 C-163.6952002 43.68361816 -162.84425781 43.22197266 -161.9675293 42.74633789 C-142.5185953 32.23274435 -122.60514409 22.95011971 -101.54614258 16.14526367 C-100.69648926 15.86585937 -99.84683594 15.58645508 -98.97143555 15.29858398 C-66.67182433 4.74871988 -33.9140104 -0.01051988 0 0 Z M71.67260742 14.49682617 C70.9147998 14.74714096 70.15699219 14.99745575 69.3762207 15.25535583 C66.89780914 16.08150877 64.42525522 16.92337102 61.95385742 17.77026367 C61.10605713 18.059487 60.25825684 18.34871033 59.38476562 18.646698 C43.0399274 24.26239876 27.75090028 31.08660582 12.45385742 39.14526367 C11.4176123 39.68602539 10.38136719 40.22678711 9.3137207 40.78393555 C-1.98408675 46.70744505 -13.02731155 52.91704385 -23.54614258 60.14526367 C-24.19856934 60.59337402 -24.85099609 61.04148438 -25.52319336 61.50317383 C-46.43331589 75.94332622 -66.56291059 91.30216415 -85.05932617 108.75561523 C-87.39805546 110.94150146 -89.79061245 113.06759135 -92.17114258 115.20776367 C-97.70623644 120.27728889 -103.04310897 125.53406752 -108.35864258 130.83276367 C-109.15931152 131.62884033 -109.95998047 132.42491699 -110.78491211 133.24511719 C-115.02203135 137.49327289 -119.10542399 141.81225635 -122.99609375 146.38085938 C-124.60909392 148.21692053 -126.30154656 149.9344588 -128.04614258 151.64526367 C-131.75797373 155.30782273 -135.16391501 159.17853465 -138.54614258 163.14526367 C-138.95912598 163.62801758 -139.37210938 164.11077148 -139.79760742 164.6081543 C-141.19544467 166.24341721 -142.59010061 167.88133923 -143.98364258 169.52026367 C-144.41386719 170.02509277 -144.8440918 170.52992188 -145.28735352 171.05004883 C-159.11203252 187.38038685 -172.00123817 204.56701947 -184.17114258 222.15844727 C-185.50910682 224.09174858 -186.85508127 226.01925024 -188.20239258 227.94604492 C-228.15248639 285.30291268 -261.40843133 347.22123891 -289.54614258 411.14526367 C-290.06724609 412.32668945 -290.58834961 413.50811523 -291.12524414 414.7253418 C-297.37999182 428.96803214 -303.30270949 443.34012638 -309.10864258 457.77026367 C-309.56184372 458.89195953 -309.56184372 458.89195953 -310.02420044 460.03631592 C-313.22393061 467.969964 -316.3375311 475.86516546 -318.54614258 484.14526367 C-306.14946281 482.74047093 -293.75818015 481.29899743 -281.37426758 479.78588867 C-220.44727795 472.34866829 -159.47758203 466.50647219 -98.17114258 463.39526367 C-97.03052368 463.33618835 -95.88990479 463.27711304 -94.71472168 463.21624756 C-56.50840682 461.27031776 -18.26455174 460.95647504 19.98388672 460.95996094 C24.57279419 460.96004197 29.16160132 460.95310785 33.75048828 460.93945312 C67.03380939 460.84222891 100.20742443 461.57545665 133.45385742 463.14526367 C134.29153278 463.18420872 135.12920815 463.22315376 135.99226761 463.26327896 C146.25440057 463.74050195 156.51108128 464.28630889 166.76635742 464.89526367 C167.45547211 464.93574074 168.14458679 464.9762178 168.85458374 465.01792145 C200.80720744 466.89678453 232.62427344 469.76350854 264.45385742 473.14526367 C265.59904846 473.26643555 266.7442395 473.38760742 267.9241333 473.51245117 C336.5985612 480.80614391 404.87484282 491.03821615 472.61083984 504.50439453 C473.52127548 504.68407776 474.43171112 504.86376099 475.36973572 505.04888916 C477.0409048 505.37951928 478.71128294 505.71418667 480.38063049 506.05389404 C484.12153715 506.7940472 487.63591674 507.33691786 491.45385742 507.14526367 C488.94487007 497.98212755 485.5730418 489.14189634 482.20385742 480.27026367 C481.89972931 479.46758057 481.5956012 478.66489746 481.28225708 477.83789062 C470.65857096 449.855193 458.93588743 422.34719738 446.45385742 395.14526367 C445.89312293 393.91985187 445.3324136 392.69442855 444.77172852 391.46899414 C432.59089896 364.88360645 419.72723391 338.67691331 405.45385742 313.14526367 C404.44210428 311.3184598 403.43038613 309.49163656 402.41870117 307.66479492 C376.43134569 260.97378638 346.62993718 216.25449149 312.45385742 175.14526367 C311.72126709 174.26402832 311.72126709 174.26402832 310.97387695 173.36499023 C304.95633792 166.14879462 298.77567789 159.09697567 292.45385742 152.14526367 C291.07881762 150.60363251 289.70381881 149.06196478 288.32885742 147.52026367 C286.70765469 145.7251603 285.08214169 143.93394609 283.45385742 142.14526367 C282.93082031 141.5703418 282.4077832 140.99541992 281.86889648 140.40307617 C272.79584377 130.46960336 263.32787828 121.0925587 253.43481445 111.9777832 C251.60443852 110.2845614 249.78988308 108.57644004 247.98120117 106.86010742 C241.05275376 100.31403383 233.81324154 94.35774339 226.25854492 88.55151367 C224.41765093 87.11705082 222.60486587 85.65308228 220.79760742 84.17651367 C212.60447659 77.48678887 204.18762388 71.3218543 195.3918457 65.44799805 C193.55490436 64.2131884 191.73503219 62.95700165 189.91870117 61.69213867 C174.67354019 51.16506106 158.28195392 42.08894031 141.55053711 34.14624023 C140.0856201 33.44687371 138.62568452 32.7370194 137.16967773 32.01928711 C125.05179769 26.05543709 112.68353759 21.29734536 99.89135742 17.02026367 C99.16095245 16.77416351 98.43054749 16.52806335 97.67800903 16.27450562 C95.5842935 15.57298399 93.48697783 14.88386167 91.38745117 14.19995117 C90.17114014 13.80275879 88.9548291 13.40556641 87.70166016 12.99633789 C81.71330458 11.42711234 77.44285142 12.55639915 71.67260742 14.49682617 Z M724.45385742 740.14526367 C725.13061726 747.19198543 726.3091706 754.04599859 727.67651367 760.98901367 C728.13357501 763.34848257 728.59026478 765.70802348 729.04663086 768.06762695 C729.2863562 769.30192444 729.52608154 770.53622192 729.77307129 771.80792236 C735.20232311 799.83735998 740.11184355 827.92565735 744.45385742 856.14526367 C744.68171936 857.62135101 744.68171936 857.62135101 744.91418457 859.1272583 C749.78188522 890.71957733 753.88998195 922.3803419 757.45385742 954.14526367 C757.56429382 955.12162781 757.67473022 956.09799194 757.78851318 957.10394287 C761.99258888 994.32276781 764.96855946 1031.6377791 767.31946564 1069.0151062 C767.44937993 1071.07429391 767.58128064 1073.13334599 767.71356201 1075.19238281 C770.58831553 1120.47695689 770.7396102 1165.78910391 770.76473951 1211.14706993 C770.76634047 1213.37171467 770.76893966 1215.59635585 770.77191544 1217.82099915 C770.82260816 1256.30124893 770.32452736 1294.70121941 768.45385742 1333.14526367 C768.41610577 1333.93097748 768.37835411 1334.71669128 768.33945847 1335.5262146 C767.90056294 1344.61335362 767.3727446 1353.69274792 766.76635742 1362.77026367 C766.64472229 1364.62424774 766.64472229 1364.62424774 766.52062988 1366.51568604 C762.93886604 1420.54666958 757.33129083 1474.35444795 750.25610352 1528.03344727 C749.2855117 1535.39958412 748.36027917 1542.77097286 747.45385742 1550.14526367 C751.58515969 1549.56492404 755.19779932 1548.62926989 759.07495117 1547.09838867 C760.15848877 1546.67275635 761.24202637 1546.24712402 762.35839844 1545.80859375 C763.5242749 1545.34219482 764.69015137 1544.8757959 765.89135742 1544.39526367 C767.13735018 1543.90001577 768.383363 1543.40481833 769.62939453 1542.90966797 C773.5767413 1541.33593092 777.51652916 1539.7438809 781.45385742 1538.14526367 C782.08215454 1537.89029114 782.71045166 1537.6353186 783.35778809 1537.37261963 C837.04392499 1515.54678377 889.87007634 1490.47960082 939.6730957 1460.79516602 C942.44336916 1459.15148665 945.22560657 1457.53019349 948.01245117 1455.91479492 C960.53087428 1448.6369252 972.71151967 1440.92320433 984.77758789 1432.91918945 C987.27028088 1431.26694468 989.76916276 1429.62458505 992.27026367 1427.98510742 C1014.13341735 1413.6043548 1035.47800747 1398.06174922 1055.45385742 1381.14526367 C1055.99558594 1380.68700195 1056.53731445 1380.22874023 1057.09545898 1379.7565918 C1063.85134828 1374.0317666 1070.53970364 1368.24088378 1077.09448242 1362.28588867 C1078.70064763 1360.82863944 1080.31562364 1359.38105589 1081.93823242 1357.94213867 C1087.17488262 1353.29095247 1092.16524516 1348.4677644 1097.08276367 1343.48120117 C1099.16254104 1341.4322607 1101.28625547 1339.52649819 1103.51635742 1337.64526367 C1107.42909565 1334.29822254 1110.76267755 1330.55241292 1114.16088867 1326.69213867 C1116.39262417 1324.21327744 1118.70261989 1321.86019197 1121.07885742 1319.52026367 C1125.0848916 1315.55567123 1128.80567452 1311.43855209 1132.45385742 1307.14526367 C1133.25307617 1306.22358398 1134.05229492 1305.3019043 1134.87573242 1304.35229492 C1169.70946523 1263.97289321 1198.41814915 1217.29842199 1215.30273438 1166.59106445 C1216.08135128 1164.26033296 1216.9097319 1161.94573505 1217.78271484 1159.64868164 C1221.05552579 1150.25463528 1220.03965556 1144.30657888 1216.51635742 1135.14526367 C1216.04727352 1133.84926626 1215.58044529 1132.55245049 1215.11572266 1131.25488281 C1213.63587851 1127.18822595 1212.06145278 1123.16291564 1210.45385742 1119.14526367 C1210.19121094 1118.48822449 1209.92856445 1117.8311853 1209.65795898 1117.15423584 C1196.41916767 1084.23332697 1179.31592877 1053.85051833 1158.45385742 1025.14526367 C1158.01170898 1024.53585937 1157.56956055 1023.92645508 1157.11401367 1023.29858398 C1145.45364861 1007.30749228 1132.44386137 992.25539157 1118.96801758 977.77270508 C1117.2871267 975.96605906 1115.61085841 974.15517349 1113.93432617 972.34448242 C1102.34051241 959.83620453 1102.34051241 959.83620453 1089.84057617 948.25073242 C1087.33390876 946.03944971 1084.89662632 943.76576559 1082.46020508 941.4777832 C1076.89267775 936.25103339 1071.25485452 931.22549742 1065.28979492 926.44995117 C1062.60276173 924.26627406 1059.98002691 922.02610019 1057.36523438 919.75732422 C1050.26997039 913.60266514 1042.98387244 907.75993772 1035.45385742 902.14526367 C1034.74600098 901.61674805 1034.03814453 901.08823242 1033.30883789 900.54370117 C1027.7155566 896.37639145 1022.09456075 892.24812697 1016.45385742 888.14526367 C1015.76340332 887.64269043 1015.07294922 887.14011719 1014.36157227 886.62231445 C994.40428548 872.16001559 973.53257318 858.90279809 952.45385742 846.14526367 C951.60500977 845.6307666 950.75616211 845.11626953 949.8815918 844.58618164 C943.44691642 840.70047891 936.96390349 836.9031391 930.45385742 833.14526367 C929.50961914 832.59692871 928.56538086 832.04859375 927.5925293 831.48364258 C890.44423541 810.0486074 851.28628232 790.52121073 811.67431641 774.06866455 C809.25576368 773.06288434 806.84009041 772.05037106 804.42456055 771.03735352 C780.72465935 761.11372682 756.84992061 751.7139629 732.75463867 742.79370117 C732.02462143 742.52278656 731.29460419 742.25187195 730.54246521 741.9727478 C727.57387921 740.69530381 727.57387921 740.69530381 724.45385742 740.14526367 Z " fill="#FFFFFF" transform="translate(1193.546142578125,-0.145263671875)"/>
</svg>
