<svg width="100" height="100" viewBox="0 0 100 100" fill="none" xmlns="http://www.w3.org/2000/svg">
<rect width="100" height="100" rx="50" fill="black"/>
<path d="M49.3341 8.5041C49.4006 8.50399 49.4671 8.50388 49.5336 8.50375C49.7132 8.50345 49.8928 8.50336 50.0724 8.50334C50.185 8.50332 50.2977 8.50325 50.4103 8.50315C50.8046 8.50284 51.1988 8.5027 51.593 8.50273C51.9584 8.50275 52.3237 8.50239 52.6891 8.50184C53.0044 8.50139 53.3197 8.50121 53.635 8.50124C53.8226 8.50124 54.0102 8.50115 54.1978 8.50078C56.0236 8.49747 56.0236 8.49747 56.8567 8.65664C56.8971 8.66417 56.9374 8.67171 56.979 8.67947C57.9492 8.86499 58.8969 9.18259 59.7898 9.60408C59.8193 9.61802 59.8488 9.63195 59.8792 9.64631C60.7107 10.0427 61.4774 10.5328 62.2201 11.0755C62.2548 11.1007 62.2895 11.126 62.3253 11.152C62.5471 11.3154 62.7583 11.4883 62.9673 11.6675C63.0681 11.7539 63.1712 11.8372 63.2748 11.9203C63.4093 12.0296 63.5335 12.1435 63.6528 12.2692C63.7162 12.3318 63.7811 12.3894 63.8487 12.4474C64.0278 12.6028 64.1943 12.7704 64.3616 12.9383C64.3926 12.9692 64.4237 13.0001 64.4557 13.032C64.6107 13.1872 64.7612 13.3442 64.9041 13.5108C64.992 13.6122 65.0846 13.709 65.1767 13.8066C65.3367 13.9776 65.4892 14.1522 65.6356 14.3352C65.7025 14.4178 65.7712 14.4984 65.8408 14.5787C66.0887 14.8658 66.3145 15.1688 66.5394 15.474C66.5949 15.5493 66.6508 15.6244 66.7067 15.6994C67.4458 16.6989 68.1186 17.7583 68.7238 18.8433C68.7443 18.8798 68.7648 18.9164 68.7859 18.954C69.3177 19.9027 69.8157 20.8634 70.2641 21.8546C70.2823 21.8945 70.3005 21.9345 70.3193 21.9756C71.0922 23.671 71.7578 25.4092 72.35 27.1757C72.3666 27.2253 72.3666 27.2253 72.3836 27.2759C72.4548 27.4919 72.4548 27.4919 72.4548 27.5692C72.4986 27.5782 72.5425 27.5872 72.5876 27.5965C72.7637 27.6357 72.9323 27.69 73.1028 27.7485C73.1508 27.7647 73.1508 27.7647 73.1998 27.7813C73.3038 27.8166 73.4078 27.8522 73.5117 27.8879C73.5474 27.9001 73.5832 27.9123 73.6201 27.9249C75.3605 28.5206 77.054 29.2168 78.7189 29.9988C78.7533 30.0149 78.7876 30.031 78.823 30.0475C79.2443 30.2453 79.6603 30.4504 80.0701 30.6709C80.1635 30.7211 80.2571 30.771 80.3507 30.8208C80.8406 31.0829 81.3221 31.3574 81.7996 31.6413C81.8318 31.6604 81.8641 31.6795 81.8973 31.6991C82.8318 32.2538 83.7441 32.8619 84.6064 33.5234C84.6581 33.5625 84.6581 33.5625 84.7109 33.6025C85.1629 33.946 85.6006 34.3067 86.0294 34.6787C86.0698 34.7136 86.1103 34.7484 86.1509 34.7831C86.5424 35.1197 86.911 35.4816 87.2764 35.846C87.2933 35.8628 87.3102 35.8797 87.3277 35.897C87.5235 36.092 87.7129 36.2903 87.8925 36.5004C87.9423 36.5555 87.9922 36.6104 88.0423 36.6651C88.188 36.827 88.3278 36.9927 88.4637 37.163C88.4949 37.2019 88.5263 37.2407 88.5579 37.2793C89.2511 38.1283 89.8497 39.0711 90.3237 40.0589C90.3584 40.1305 90.3943 40.2014 90.4302 40.2723C91.1624 41.7377 91.4913 43.3695 91.4922 44.9985C91.4923 45.0679 91.4925 45.1373 91.4927 45.2067C91.4931 45.3943 91.4934 45.5818 91.4935 45.7693C91.4936 45.8869 91.4938 46.0046 91.4939 46.1222C91.4944 46.4916 91.4947 46.8609 91.4948 47.2303C91.495 47.6541 91.4956 48.078 91.4966 48.5018C91.4973 48.8311 91.4977 49.1603 91.4977 49.4896C91.4977 49.6855 91.4979 49.8813 91.4986 50.0772C91.5033 51.6586 91.5033 51.6586 91.384 52.3782C91.3798 52.4041 91.3756 52.43 91.3713 52.4567C91.3485 52.5968 91.322 52.7356 91.292 52.8744C91.279 52.9356 91.279 52.9356 91.2657 52.9981C90.8029 55.0995 89.7179 57.038 88.3375 58.6745C88.3222 58.6928 88.3068 58.711 88.291 58.7298C88.2404 58.7899 88.1895 58.8499 88.1385 58.9098C88.1161 58.9363 88.1161 58.9363 88.0932 58.9633C87.7667 59.3445 87.4167 59.7033 87.0613 60.0575C86.9935 60.1251 86.9258 60.1929 86.8581 60.2608C86.6497 60.4692 86.4417 60.6755 86.2153 60.8646C86.177 60.8975 86.1387 60.9304 86.1005 60.9633C86.0425 61.0131 85.9844 61.0627 85.9263 61.1123C85.8245 61.1992 85.723 61.2864 85.6226 61.3749C85.3126 61.647 84.9859 61.8934 84.6542 62.1383C84.5805 62.193 84.5073 62.2482 84.4344 62.3038C83.8682 62.735 83.2826 63.1391 82.6767 63.5124C82.5764 63.5744 82.4763 63.6368 82.3763 63.6993C81.8943 63.9992 81.407 64.2866 80.9096 64.5603C80.8769 64.5783 80.8442 64.5963 80.8105 64.6149C75.1798 67.7084 75.1798 67.7084 73.7556 67.7084C73.7497 67.7652 73.7497 67.7652 73.7438 67.8232C73.7218 67.998 73.6799 68.166 73.6363 68.3365C73.6277 68.3707 73.6191 68.4048 73.6102 68.44C73.5819 68.5519 73.5532 68.6638 73.5245 68.7756C73.5146 68.8143 73.5047 68.853 73.4945 68.8928C72.7373 71.8462 71.7657 74.738 69.6822 79.343C69.6654 79.3775 69.6487 79.412 69.6314 79.4476C69.426 79.8696 69.2053 80.2802 68.9718 80.6873C68.8816 80.8449 68.795 81.004 68.7094 81.1641C68.4906 81.5727 68.2501 81.9652 68.0008 82.3558C67.9382 82.4543 67.8761 82.5531 67.8141 82.6521C67.5647 83.0495 67.3041 83.4371 67.0316 83.819C66.9833 83.8868 66.9353 83.9548 66.8875 84.0229C66.58 84.4594 66.2539 84.883 65.9169 85.2971C65.8936 85.326 65.8703 85.3548 65.8463 85.3846C65.5225 85.7834 65.1871 86.1689 64.8347 86.5427C64.7456 86.6371 64.6577 86.7326 64.5705 86.8287C64.3165 87.1086 64.0557 87.3809 63.7678 87.6263C63.6881 87.6959 63.6108 87.7675 63.5335 87.8397C63.3195 88.0395 63.1 88.2291 62.8704 88.4111C62.8347 88.4397 62.799 88.4683 62.7633 88.4969C60.4409 90.3487 57.7441 91.4968 54.746 91.4958C54.6847 91.4959 54.6234 91.496 54.5621 91.4961C54.397 91.4964 54.2319 91.4965 54.0668 91.4965C53.9631 91.4966 53.8595 91.4967 53.7558 91.4967C53.3925 91.4971 53.0292 91.4972 52.666 91.4972C52.3299 91.4971 51.9939 91.4975 51.6578 91.498C51.3673 91.4985 51.0768 91.4987 50.7863 91.4987C50.6137 91.4986 50.4411 91.4987 50.2684 91.4991C48.4432 91.5027 48.4432 91.5027 47.5633 91.3454C47.5207 91.338 47.4782 91.3306 47.4343 91.323C45.5397 90.9831 43.778 90.1613 42.2298 89.027C42.1934 89.0004 42.1569 88.9737 42.1194 88.9462C42.0186 88.8713 41.9186 88.7955 41.819 88.7191C41.7998 88.7043 41.7805 88.6895 41.7606 88.6743C41.5237 88.4923 41.2935 88.3066 41.0733 88.1043C41.0055 88.042 40.9367 87.9814 40.867 87.9213C40.52 87.6184 40.1885 87.3 39.8634 86.9738C39.8032 86.9134 39.7428 86.8532 39.6823 86.793C39.4859 86.5968 39.2938 86.3994 39.1149 86.1868C39.0828 86.1498 39.0507 86.1127 39.0185 86.0758C38.5884 85.5771 38.1755 85.0691 37.7842 84.5393C37.7294 84.4657 37.6742 84.3927 37.6186 84.3198C37.3634 83.9844 37.1246 83.6404 36.8921 83.2889C36.8742 83.262 36.8563 83.2351 36.8379 83.2073C36.5617 82.7911 36.2897 82.373 36.0342 81.9436C36.0158 81.9129 35.9974 81.8821 35.9785 81.8504C35.8349 81.6091 35.6943 81.3661 35.555 81.1224C35.5349 81.0875 35.5149 81.0527 35.4943 81.0168C34.8184 79.8362 34.2097 78.6079 33.6723 77.3583C33.6634 77.3376 33.6545 77.317 33.6454 77.2958C33.4032 76.7347 33.1741 76.1685 32.9492 75.6002C32.9381 75.5722 32.927 75.5442 32.9156 75.5154C32.4617 74.3682 32.4617 74.3682 32.6667 73.7711C32.825 73.407 33.0951 73.1229 33.4649 72.9711C33.8199 72.8613 34.1534 72.8566 34.5222 72.8598C34.5867 72.8598 34.6512 72.8599 34.7157 72.8599C34.85 72.86 34.9842 72.8605 35.1185 72.8615C35.2899 72.8626 35.4612 72.8629 35.6325 72.8628C35.7654 72.8628 35.8982 72.8632 36.0311 72.8637C36.0942 72.8639 36.1574 72.8641 36.2205 72.8641C37.0068 72.8654 37.0068 72.8655 37.3456 73.0424C37.3787 73.0592 37.4117 73.0761 37.4458 73.0934C37.7513 73.274 37.9181 73.5291 38.046 73.8553C38.0547 73.8774 38.0634 73.8995 38.0723 73.9223C38.1638 74.1568 38.2498 74.3935 38.3362 74.63C38.7935 75.8808 39.3012 77.111 39.8679 78.3164C39.8856 78.354 39.9033 78.3916 39.9214 78.4304C40.0384 78.6786 40.1579 78.9255 40.2787 79.1719C40.2988 79.2131 40.319 79.2543 40.3391 79.2955C40.6057 79.8403 40.8843 80.3746 41.1881 80.8998C41.2469 81.0025 41.3036 81.1062 41.3601 81.2101C41.9471 82.286 42.6263 83.3229 43.3594 84.3048C43.3943 84.352 43.4293 84.3991 43.4642 84.4463C43.7749 84.8645 44.0944 85.274 44.4331 85.6699C44.5192 85.7709 44.6026 85.8739 44.6858 85.9772C44.7879 86.1028 44.8933 86.2192 45.0099 86.3312C45.0706 86.3919 45.1263 86.4548 45.1821 86.52C45.304 86.6602 45.4323 86.7926 45.5639 86.9238C45.5872 86.9471 45.6105 86.9705 45.6346 86.9945C45.6835 87.0435 45.7325 87.0924 45.7815 87.1412C45.8558 87.2154 45.93 87.2897 46.0041 87.364C46.052 87.4119 46.1 87.4598 46.1479 87.5076C46.1697 87.5295 46.1915 87.5513 46.214 87.5739C46.3637 87.7228 46.5196 87.8627 46.6797 88.0005C46.7156 88.0321 46.7514 88.0638 46.7872 88.0956C47.1244 88.3918 47.4813 88.6597 47.8435 88.9244C47.8802 88.9514 47.8802 88.9514 47.9177 88.9789C49.016 89.7834 50.7749 91.0251 52.1907 91.046C52.3239 91.0179 52.4512 90.9763 52.5801 90.9326C52.6176 90.9202 52.6552 90.9077 52.6939 90.8949C54.2272 90.3775 55.6144 89.586 56.8802 88.5822C56.9038 88.5636 56.9273 88.545 56.9516 88.5258C57.2386 88.2982 57.5157 88.0635 57.7825 87.8126C57.8247 87.7738 57.8674 87.7355 57.9103 87.6975C58.1449 87.4899 58.3674 87.2718 58.5885 87.05C58.6496 86.9887 58.7109 86.9276 58.7723 86.8665C58.9705 86.6685 59.1635 86.4691 59.3448 86.2553C59.3945 86.2003 59.4444 86.1454 59.4945 86.0906C59.6279 85.9428 59.7546 85.7907 59.8797 85.6359C59.9505 85.5494 60.0227 85.4643 60.0957 85.3797C60.3071 85.1338 60.5024 84.8778 60.6946 84.6167C60.7472 84.5456 60.8006 84.4751 60.8542 84.4046C61.4075 83.6726 61.9115 82.8966 62.3912 82.1147C62.4043 82.0934 62.4175 82.0721 62.431 82.0501C63.2103 80.7791 63.9133 79.4509 64.528 78.0928C64.5818 77.9745 64.6367 77.8567 64.6919 77.739C65.4575 76.0914 66.0846 74.3745 66.6442 72.6471C66.6706 72.5657 66.6971 72.4844 66.7237 72.4031C66.9741 71.6352 67.2051 70.8631 67.4213 70.0849C67.4304 70.0523 67.4395 70.0197 67.4488 69.9862C67.4658 69.9249 67.4827 69.8637 67.4996 69.8024C67.5562 69.598 67.5562 69.598 67.5942 69.522C67.5606 69.5296 67.5271 69.5371 67.4925 69.5449C64.6311 70.1862 61.7466 70.6743 58.8313 70.9935C58.7816 70.9989 58.7816 70.9989 58.7308 71.0045C58.5126 71.0285 58.2944 71.0518 58.0761 71.0747C58.0486 71.0777 58.021 71.0806 57.9926 71.0836C57.9153 71.0918 57.8378 71.0998 57.7604 71.1076C57.7174 71.1121 57.6744 71.1165 57.6301 71.121C57.4711 71.1321 57.3133 71.1323 57.154 71.1304C57.1543 71.1596 57.1545 71.1889 57.1547 71.219C57.1568 71.4958 57.1584 71.7727 57.1594 72.0496C57.1599 72.1919 57.1606 72.3342 57.1618 72.4765C57.1629 72.614 57.1635 72.7516 57.1638 72.8892C57.164 72.9414 57.1643 72.9937 57.1649 73.0459C57.1702 73.5636 57.0792 73.9649 56.7219 74.3555C56.4407 74.6231 56.1102 74.7294 55.7314 74.7341C55.6929 74.7356 55.6929 74.7356 55.6537 74.7371C55.288 74.7411 54.9843 74.5705 54.6767 74.3897C54.6074 74.3499 54.5382 74.31 54.4689 74.2702C54.4325 74.2493 54.3961 74.2284 54.3587 74.2068C54.1593 74.093 53.9579 73.9827 53.7567 73.8722C53.6721 73.8256 53.5875 73.7791 53.5029 73.7325C53.482 73.721 53.461 73.7094 53.4395 73.6975C53.1065 73.5142 52.7745 73.3293 52.4424 73.1446C52.3264 73.0802 52.2104 73.0158 52.0944 72.9515C51.7211 72.7443 51.348 72.5368 50.9755 72.328C50.3676 71.9874 49.7589 71.6481 49.1463 71.3157C48.89 71.1762 48.6362 71.0325 48.3825 70.8883C48.1473 70.755 47.9104 70.6254 47.6724 70.4973C47.3935 70.3468 47.115 70.1957 46.838 70.0418C46.7907 70.0159 46.7907 70.0159 46.7425 69.9896C46.3157 69.7507 45.9773 69.4766 45.8261 68.9959C45.7216 68.5412 45.7987 68.1556 46.0331 67.7604C46.226 67.5033 46.4494 67.3586 46.731 67.208C46.8082 67.1658 46.8853 67.1236 46.9624 67.0814C47.0205 67.0498 47.0205 67.0498 47.0798 67.0176C47.2484 66.9254 47.4154 66.8304 47.5825 66.7353C48.2068 66.3818 48.8352 66.0355 49.4636 65.6892C49.8786 65.4605 50.2929 65.2305 50.7071 65.0003C50.9378 64.872 51.1686 64.7439 51.3993 64.6158C51.591 64.5093 51.7827 64.4028 51.9744 64.2963C52.3713 64.0756 52.7685 63.8555 53.1663 63.6363C53.4783 63.4644 53.7902 63.2923 54.1018 63.1195C54.1587 63.088 54.2156 63.0565 54.2726 63.025C54.4852 62.907 54.6957 62.7862 54.9045 62.6617C55.3008 62.4404 55.7062 62.3698 56.1485 62.4921C56.5767 62.6377 56.8498 62.9066 57.0487 63.3036C57.1522 63.5649 57.1634 63.8009 57.1607 64.079C57.1606 64.1174 57.1605 64.1557 57.1604 64.1953C57.1601 64.3169 57.1592 64.4386 57.1583 64.5603C57.158 64.6431 57.1577 64.7259 57.1574 64.8087C57.1566 65.0111 57.1555 65.2134 57.154 65.4157C59.4685 65.1677 61.7738 64.8811 64.0667 64.476C64.1693 64.4579 64.2719 64.44 64.3746 64.422C65.2357 64.2706 66.0904 64.0933 66.9438 63.9037C66.9781 63.8961 66.9781 63.8961 67.013 63.8883C67.524 63.7748 68.0339 63.6585 68.5404 63.5264C68.5717 63.5183 68.603 63.5103 68.6352 63.502C68.676 63.4913 68.676 63.4913 68.7176 63.4804C68.7922 63.4652 68.7922 63.4652 68.9291 63.4652C68.9309 63.4404 68.9326 63.4156 68.9344 63.39C68.9536 63.1377 68.9854 62.8899 69.0257 62.6402C69.0384 62.5595 69.0511 62.4788 69.0638 62.3981C69.0737 62.3349 69.0737 62.3349 69.0839 62.2704C69.6284 58.8103 69.9573 55.2881 69.9992 50.3112C69.9988 50.0842 69.999 49.8571 69.9994 49.63C70.0012 48.4117 69.9751 47.1963 69.9218 45.9792C69.9205 45.9489 69.9192 45.9185 69.9178 45.8873C69.9142 45.8035 69.9105 45.7198 69.9068 45.636C69.9052 45.6006 69.9052 45.6006 69.9036 45.5645C69.7929 43.1285 69.5301 40.6905 69.1688 38.2798C69.1598 38.2204 69.1598 38.2204 69.1507 38.1597C68.8419 36.1088 68.4536 34.0692 67.9707 32.0519C64.7665 31.281 61.5085 30.7155 54.0106 30.0728C53.9168 30.068 53.823 30.0628 53.7293 30.0574C52.5928 29.9947 51.4524 29.9917 50.3145 29.9924C50.2828 29.9924 50.2512 29.9924 50.2186 29.9924C48.9467 29.9926 47.6767 30.0156 46.4059 30.0672C46.3627 30.069 46.3196 30.0707 46.2752 30.0725C43.0894 30.2031 39.9125 30.5392 36.7677 31.0643C36.5892 31.0938 36.5892 31.0938 36.5134 31.0938C36.5089 31.1341 36.5044 31.1743 36.4997 31.2158C36.4831 31.3483 36.4564 31.4756 36.4241 31.6053C36.4125 31.6528 36.4009 31.7002 36.3893 31.7476C36.3831 31.7729 36.3768 31.7982 36.3704 31.8242C35.6118 34.9239 35.0676 38.0956 34.6482 42.2336C34.6449 42.2688 34.6416 42.304 34.6383 42.3403C34.6322 42.4061 34.6262 42.4719 34.6204 42.5376C34.6177 42.5665 34.6151 42.5953 34.6123 42.625C34.6101 42.6501 34.6078 42.6752 34.6055 42.701C34.5965 42.7626 34.5965 42.7626 34.5623 42.831C34.5832 42.8307 34.6041 42.8304 34.6256 42.8301C34.845 42.827 35.0643 42.825 35.2837 42.8235C35.3653 42.8228 35.447 42.8219 35.5286 42.8207C36.1655 42.8116 36.6722 42.8167 37.1636 43.2705C37.4247 43.5444 37.5457 43.8783 37.551 44.2511C37.5529 44.3183 37.5529 44.3183 37.5549 44.3869C37.5369 44.7518 37.3483 45.0735 37.1702 45.3825C37.1474 45.4227 37.1246 45.4629 37.1019 45.5032C37.0548 45.5865 37.0075 45.6696 36.9602 45.7528C36.8496 45.9471 36.7416 46.1429 36.6332 46.3385C36.5904 46.4155 36.5476 46.4925 36.5048 46.5695C36.4837 46.6076 36.4625 46.6457 36.4407 46.685C35.7347 47.9553 35.7347 47.9553 35.6705 48.0708C35.6277 48.1479 35.5849 48.2249 35.5421 48.302C35.4356 48.4936 35.329 48.6853 35.2224 48.8769C35.0126 49.2541 34.8032 49.6316 34.5949 50.0097C34.3939 50.3743 34.1918 50.7382 33.9879 51.1012C33.8413 51.3625 33.6957 51.6243 33.5504 51.8863C33.3351 52.2743 33.1176 52.6611 32.8984 53.0469C32.8547 53.1241 32.8114 53.2015 32.7683 53.2791C32.7499 53.312 32.7499 53.312 32.7311 53.3456C32.6999 53.4013 32.6689 53.4571 32.6379 53.5129C32.4345 53.8371 32.1224 54.0848 31.7466 54.1764C31.3154 54.2471 30.9196 54.1848 30.5488 53.9501C30.1967 53.682 30.0151 53.2705 29.8109 52.8889C29.7061 52.6934 29.5975 52.5003 29.4877 52.3076C29.1355 51.6876 28.7932 51.062 28.4523 50.4357C28.2541 50.0722 28.0524 49.7106 27.8509 49.3489C27.785 49.2305 27.7193 49.112 27.6536 48.9936C27.4541 48.6339 27.254 48.2746 27.051 47.9168C26.8604 47.581 26.6734 47.2432 26.4872 46.905C26.4639 46.8628 26.4407 46.8206 26.4175 46.7784C26.4059 46.7575 26.3944 46.7366 26.3826 46.715C26.2816 46.5318 26.18 46.349 26.0782 46.1663C25.9939 46.0148 25.9099 45.8633 25.8258 45.7118C25.7855 45.6393 25.7451 45.5668 25.7046 45.4944C25.6476 45.3924 25.5908 45.2901 25.5342 45.1879C25.5174 45.1581 25.5006 45.1283 25.4834 45.0976C25.2628 44.6976 25.1711 44.3047 25.2881 43.849C25.44 43.4226 25.7184 43.133 26.1182 42.9351C26.4195 42.8182 26.7089 42.822 27.0274 42.8243C27.08 42.8245 27.1326 42.8245 27.1851 42.8246C27.3227 42.8249 27.4602 42.8255 27.5977 42.8263C27.7384 42.827 27.879 42.8273 28.0197 42.8277C28.2951 42.8284 28.5705 42.8296 28.8459 42.831C28.8485 42.7973 28.8511 42.7636 28.8538 42.7289C29.1207 39.2804 29.6976 35.863 30.4547 32.4283C27.3627 33.2672 24.3221 34.3065 19.0763 36.894C18.9836 36.9476 18.8903 36.9999 18.7967 37.052C17.8583 37.5739 16.9552 38.1502 16.0823 38.7754C16.0324 38.8111 15.9825 38.8467 15.9325 38.8823C15.586 39.1291 15.2457 39.3817 14.9143 39.6486C14.8825 39.6742 14.8507 39.6997 14.8179 39.726C14.4709 40.0073 14.1313 40.2981 13.8011 40.5989C13.7305 40.6624 13.6592 40.7248 13.5875 40.7871C13.4397 40.9161 13.2963 41.0495 13.1536 41.1842C13.1154 41.2203 13.1154 41.2203 13.0764 41.2571C12.8352 41.4852 12.5977 41.7135 12.3814 41.9658C12.3109 42.0462 12.2384 42.1244 12.1654 42.2025C11.9656 42.4165 11.7768 42.6363 11.594 42.8652C11.5621 42.9043 11.5301 42.9433 11.4982 42.9823C10.4101 44.3152 9.51016 45.8656 9.01352 47.518C8.99352 47.5843 8.9726 47.6503 8.95163 47.7162C8.91528 47.8647 8.94134 47.9806 8.99162 48.1226C9.00361 48.159 9.00361 48.159 9.01585 48.1961C9.04222 48.2751 9.06972 48.3537 9.09738 48.4323C9.11137 48.473 9.11137 48.473 9.12564 48.5146C9.59341 49.8761 10.287 51.1246 11.149 52.2755C11.1721 52.3064 11.1721 52.3064 11.1955 52.3379C11.4854 52.7253 11.7972 53.0927 12.1251 53.4482C12.1911 53.5207 12.2554 53.594 12.3194 53.6682C12.4422 53.8087 12.5711 53.9416 12.7032 54.0732C12.7265 54.0966 12.7498 54.1199 12.7738 54.144C12.8228 54.193 12.8718 54.2419 12.9208 54.2907C12.9951 54.3649 13.0693 54.4392 13.1434 54.5135C13.1913 54.5614 13.2393 54.6092 13.2872 54.6571C13.3199 54.6899 13.3199 54.6899 13.3532 54.7233C13.503 54.8723 13.6587 55.0124 13.819 55.1499C13.8572 55.1833 13.8955 55.2166 13.9337 55.2499C14.1493 55.4366 14.3678 55.6181 14.5931 55.7929C14.722 55.8929 14.8488 55.9952 14.9746 56.0991C15.2614 56.3353 15.5574 56.5556 15.8609 56.7699C15.9416 56.827 16.022 56.8844 16.1023 56.9419C16.5519 57.2618 17.0146 57.5596 17.4816 57.8533C17.528 57.8826 17.528 57.8826 17.5753 57.9125C18.3236 58.3847 19.0924 58.8201 19.8743 59.2342C19.9755 59.2879 20.0766 59.342 20.1776 59.3961C20.6454 59.645 21.1228 59.8699 21.6047 60.0901C21.7224 60.1443 21.8396 60.1994 21.9567 60.2549C23.1726 60.8301 24.4287 61.3385 25.6978 61.7838C25.7372 61.7976 25.7766 61.8115 25.8171 61.8257C25.8859 61.8496 25.9549 61.873 26.024 61.8959C26.4605 62.0454 26.7908 62.3248 26.9999 62.7378C27.0879 62.9514 27.1103 63.1366 27.1096 63.3654C27.1098 63.3955 27.1099 63.4257 27.1101 63.4568C27.1106 63.5561 27.1106 63.6554 27.1105 63.7546C27.1106 63.824 27.1108 63.8935 27.1109 63.9629C27.1112 64.1082 27.1112 64.2536 27.111 64.3989C27.1108 64.5845 27.1114 64.7701 27.1122 64.9557C27.1127 65.099 27.1127 65.2424 27.1126 65.3857C27.1126 65.4541 27.1128 65.5225 27.1131 65.5909C27.1156 66.1428 27.0757 66.5968 26.6766 67.0176C26.3679 67.3046 26.0301 67.422 25.6083 67.4192C25.3099 67.4063 25.0479 67.3035 24.7725 67.1951C24.7365 67.1812 24.7004 67.1672 24.6632 67.1528C23.0536 66.5284 21.4509 65.8369 19.9305 65.0176C19.8333 64.9654 19.7357 64.914 19.6382 64.8625C19.1292 64.5928 18.6315 64.3073 18.1382 64.0099C18.0369 63.9489 17.9352 63.8886 17.8334 63.8284C16.8903 63.2677 15.9839 62.6352 15.1197 61.9596C15.0807 61.9295 15.0417 61.8993 15.0027 61.8692C14.7746 61.6925 14.5524 61.5104 14.3343 61.3214C14.2107 61.2144 14.0854 61.1103 13.958 61.0079C13.8327 60.9062 13.7168 60.8012 13.6051 60.685C13.5499 60.6298 13.4932 60.5801 13.4333 60.53C13.2206 60.3451 13.0239 60.1433 12.8251 59.9439C12.7559 59.8745 12.6865 59.8053 12.6171 59.7362C12.4058 59.5251 12.1966 59.3144 12.0048 59.0852C11.9715 59.0469 11.9382 59.0087 11.9048 58.9705C11.6839 58.7156 11.4705 58.4562 11.265 58.1888C11.2333 58.1476 11.2014 58.1064 11.1694 58.0654C10.2784 56.9221 9.56715 55.6306 9.09524 54.2602C9.0844 54.2293 9.07357 54.1983 9.0624 54.1664C8.8039 53.4215 8.6343 52.6485 8.54756 51.8649C8.54456 51.838 8.54155 51.8112 8.53845 51.7835C8.50513 51.4413 8.508 51.0993 8.50782 50.7558C8.50766 50.6857 8.50749 50.6157 8.5073 50.5456C8.50686 50.3561 8.50663 50.1665 8.50648 49.977C8.50638 49.8582 8.50624 49.7393 8.50609 49.6205C8.50562 49.2474 8.50529 48.8742 8.50516 48.5011C8.505 48.0728 8.5044 47.6445 8.50341 47.2163C8.50267 46.8837 8.50233 46.5511 8.50228 46.2185C8.50225 46.0206 8.50205 45.8227 8.50143 45.6248C8.49673 44.0299 8.49673 44.0299 8.61602 43.3101C8.62011 43.2844 8.62421 43.2588 8.62842 43.2324C8.65065 43.0941 8.67641 42.9572 8.70588 42.8203C8.71451 42.7797 8.72315 42.739 8.73205 42.6971C9.2312 40.4395 10.4252 38.4515 11.9214 36.7164C11.9374 36.6978 11.9535 36.6792 11.97 36.6599C12.2829 36.3008 12.6112 35.9569 12.9486 35.6208C13.0066 35.5631 13.0643 35.5052 13.1221 35.4473C13.3144 35.2549 13.5088 35.0683 13.7163 34.8921C13.7749 34.8395 13.8334 34.7868 13.8917 34.7339C14.2483 34.4131 14.2483 34.4131 14.3324 34.4131C14.3324 34.3905 14.3324 34.3679 14.3324 34.3446C14.3856 34.2949 14.3856 34.2949 14.4651 34.2334C14.4964 34.209 14.5278 34.1845 14.5601 34.1594C14.5782 34.1455 14.5962 34.1315 14.6148 34.1172C14.6807 34.0662 14.7463 34.0147 14.8118 33.9631C15.6401 33.3126 16.4957 32.7012 17.3895 32.1436C17.4809 32.0866 17.5721 32.0292 17.6633 31.9719C18.5686 31.4045 19.5091 30.8967 20.4596 30.4094C20.5198 30.3784 20.5198 30.3784 20.5812 30.3469C21.2823 29.9869 21.9947 29.6585 22.7176 29.3447C22.8215 29.2995 22.9251 29.2537 23.0288 29.208C25.6906 28.0424 28.4781 27.1753 31.29 26.4568C31.3557 26.4399 31.4213 26.4228 31.4869 26.4055C31.628 26.3683 31.7676 26.3339 31.9117 26.3102C32.1536 26.2693 32.1536 26.2693 32.3341 26.1142C32.3762 26.0175 32.4087 25.9229 32.4352 25.8209C32.46 25.7263 32.4896 25.6334 32.519 25.5402C32.535 25.4891 32.5509 25.4379 32.5665 25.3867C32.6695 25.052 32.8018 24.7287 32.9321 24.4039C32.9575 24.3403 32.9829 24.2766 33.0082 24.2129C33.5081 22.9604 34.0528 21.736 34.6543 20.5286C34.6719 20.4931 34.6896 20.4575 34.7077 20.4209C34.9474 19.9389 35.2012 19.4671 35.4698 19.0006C35.5393 18.8793 35.6078 18.7575 35.6764 18.6357C36.3854 17.3776 37.2036 16.1857 38.088 15.0449C38.1043 15.0238 38.1206 15.0026 38.1374 14.9808C38.4444 14.5828 38.7685 14.2009 39.107 13.8294C39.1708 13.7586 39.2334 13.6871 39.2959 13.6152C39.4215 13.4715 39.5508 13.3317 39.6818 13.1928C39.7054 13.1678 39.729 13.1428 39.7533 13.117C40.3474 12.4898 40.3474 12.4898 40.656 12.2285C40.7411 12.1556 40.8231 12.0796 40.9055 12.0037C41.0905 11.8353 41.2818 11.677 41.4767 11.5204C41.5151 11.4888 41.5534 11.4571 41.5917 11.4255C41.903 11.1699 42.2282 10.9403 42.5631 10.7168C42.6347 10.6688 42.7058 10.6203 42.7768 10.5716C43.0756 10.3674 43.3831 10.1861 43.7017 10.0147C43.7308 9.99892 43.7599 9.98312 43.79 9.96684C44.4557 9.60708 45.1373 9.28943 45.8582 9.05657C45.8873 9.04701 45.9163 9.03745 45.9463 9.0276C47.0519 8.66659 48.1732 8.50374 49.3341 8.5041ZM51.7874 9.00017C51.7615 9.00873 51.7356 9.0173 51.7088 9.02612C51.624 9.05439 51.5394 9.0832 51.4548 9.11218C51.4257 9.12208 51.3967 9.13198 51.3668 9.14217C50.8073 9.33434 50.284 9.56786 49.7604 9.84362C49.7249 9.86212 49.6894 9.88063 49.6529 9.89969C49.2662 10.1024 48.8882 10.3149 48.5281 10.5622C48.5058 10.5776 48.4834 10.5929 48.4604 10.6087C47.7447 11.1028 47.0556 11.6284 46.4225 12.2256C46.3425 12.3004 46.2606 12.3732 46.1791 12.4464C45.9896 12.6199 45.8069 12.7998 45.625 12.9811C45.5976 13.0083 45.5702 13.0356 45.5419 13.0636C45.3969 13.209 45.2571 13.3568 45.1239 13.5131C45.0687 13.576 45.0108 13.6347 44.9511 13.6933C44.824 13.8186 44.7074 13.9511 44.5917 14.0868C44.5775 14.1033 44.5634 14.1198 44.5488 14.1369C44.501 14.1928 44.4532 14.2489 44.4055 14.305C44.3908 14.3222 44.3761 14.3395 44.3609 14.3573C43.8877 14.9161 43.4465 15.5042 43.0299 16.1062C42.9841 16.1724 42.9381 16.2383 42.8919 16.3042C41.5245 18.267 40.3861 20.3858 39.423 22.5732C39.4051 22.6136 39.3873 22.654 39.3689 22.6957C39.1548 23.1831 38.9521 23.6749 38.7533 24.1687C38.7378 24.207 38.7378 24.207 38.722 24.2462C38.6125 24.5177 38.5059 24.7879 38.4303 25.0712C38.8546 25.0231 39.2788 24.9738 39.7027 24.922C41.7882 24.6675 43.8752 24.4676 45.9737 24.3611C46.0127 24.3591 46.0518 24.3571 46.092 24.355C47.3998 24.2884 48.7089 24.2777 50.0181 24.2778C50.1752 24.2778 50.3323 24.2776 50.4894 24.2771C51.6287 24.2738 52.7642 24.2989 53.9022 24.3526C53.9309 24.3539 53.9596 24.3553 53.9891 24.3566C54.3404 24.373 54.6915 24.3916 55.0425 24.4125C55.0661 24.4139 55.0897 24.4152 55.114 24.4167C56.2077 24.481 57.2968 24.5791 58.3863 24.6948C58.4255 24.6989 58.4647 24.7031 58.5051 24.7074C60.8558 24.9569 63.1929 25.3071 65.5115 25.7679C65.5427 25.774 65.5739 25.7802 65.606 25.7865C65.6632 25.7978 65.7203 25.8093 65.7775 25.8209C65.9055 25.8462 66.0258 25.8648 66.1565 25.8582C66.0706 25.5447 65.9552 25.2422 65.8399 24.9386C65.8295 24.9111 65.8191 24.8837 65.8083 24.8554C65.4447 23.8978 65.0434 22.9565 64.6162 22.0257C64.597 21.9838 64.5778 21.9418 64.5586 21.8999C64.1416 20.9902 63.7013 20.0934 63.2127 19.2197C63.1781 19.1572 63.1435 19.0947 63.1089 19.0322C62.2193 17.4344 61.1992 15.9042 60.0294 14.4974C60.0043 14.4673 60.0043 14.4673 59.9787 14.4365C59.7727 14.1896 59.5612 13.9483 59.3448 13.7104C59.2977 13.6576 59.2506 13.6049 59.2036 13.5521C59.1481 13.4907 59.0924 13.4294 59.0367 13.3682C59.0188 13.3485 59.0009 13.3289 58.9824 13.3086C58.6719 12.9687 58.3478 12.6478 58.0091 12.3359C57.9465 12.278 57.8844 12.2195 57.8225 12.1608C57.5853 11.9368 57.3375 11.7329 57.0789 11.5343C57.0159 11.4852 56.9538 11.4351 56.892 11.3846C56.6115 11.1556 56.3234 10.9447 56.0223 10.7437C55.9595 10.7014 55.8972 10.6584 55.835 10.6152C55.3132 10.2549 54.7521 9.94435 54.1794 9.67256C54.1292 9.64862 54.0792 9.62433 54.0294 9.59977C53.6146 9.39569 53.1912 9.23288 52.7534 9.08652C52.7284 9.0781 52.7034 9.06967 52.6776 9.061C52.6059 9.03699 52.5341 9.01341 52.4623 8.99001C52.4206 8.97642 52.379 8.96282 52.3361 8.94882C52.1311 8.89512 51.985 8.93377 51.7874 9.00017ZM74.1321 33.8313C74.1553 34.0725 74.1956 34.307 74.2424 34.5446C74.258 34.6253 74.2737 34.7061 74.2893 34.7868C74.2975 34.8291 74.3057 34.8713 74.3142 34.9148C74.5 35.874 74.6681 36.8351 74.8167 37.8008C74.8245 37.8513 74.8245 37.8513 74.8324 37.9028C74.9991 38.9839 75.1397 40.0673 75.2617 41.1543C75.2655 41.1877 75.2692 41.2211 75.2731 41.2555C75.417 42.5291 75.5189 43.806 75.5994 45.085C75.6038 45.1555 75.6083 45.2259 75.6129 45.2964C75.7113 46.846 75.7164 48.3966 75.7173 49.9487C75.7174 50.0248 75.7175 50.1009 75.7176 50.1771C75.7193 51.4938 75.7022 52.8078 75.6382 54.1234C75.6369 54.1503 75.6356 54.1771 75.6343 54.2048C75.6193 54.5158 75.6012 54.8265 75.5804 55.1371C75.5763 55.2006 75.5763 55.2006 75.572 55.2653C75.4494 57.1142 75.2575 58.9554 75.0153 60.7923C74.9821 61.0444 74.9504 61.2966 74.9194 61.549C75.0608 61.5291 75.1845 61.4971 75.3172 61.4447C75.3543 61.4301 75.3913 61.4156 75.4296 61.4006C75.4695 61.3846 75.5094 61.3686 75.5505 61.3522C75.5931 61.3352 75.6358 61.3183 75.6784 61.3014C75.8136 61.2475 75.9484 61.193 76.0832 61.1383C76.1047 61.1296 76.1262 61.1209 76.1484 61.1119C77.986 60.365 79.7943 59.5072 81.499 58.4915C81.5939 58.4352 81.6891 58.3797 81.7845 58.3245C82.213 58.0754 82.6299 57.8115 83.043 57.5376C83.1283 57.481 83.2138 57.4248 83.2994 57.3687C84.0478 56.8766 84.7784 56.3448 85.4622 55.7659C85.4807 55.7502 85.4993 55.7345 85.5184 55.7184C85.7496 55.5225 85.9786 55.3243 86.203 55.1205C86.2579 55.0707 86.3132 55.0211 86.3688 54.9719C86.548 54.8127 86.7188 54.6477 86.8872 54.4771C86.9583 54.4069 87.031 54.3417 87.1074 54.2774C87.2413 54.1628 87.3554 54.0346 87.4717 53.9025C87.5481 53.8177 87.6272 53.7372 87.7085 53.6571C87.8457 53.5215 87.973 53.3806 88.0979 53.2337C88.1253 53.2021 88.1526 53.1706 88.1808 53.1381C89.3732 51.7563 90.3559 50.1592 90.9338 48.424C90.9605 48.3442 90.9888 48.265 91.0187 48.1864C91.1307 47.865 91.096 47.6614 90.9754 47.348C90.9593 47.3036 90.9433 47.2592 90.9274 47.2148C90.8768 47.0757 90.8229 46.9379 90.7678 46.8004C90.7588 46.778 90.7499 46.7555 90.7406 46.7323C90.2874 45.6058 89.702 44.5661 88.9879 43.5838C88.9727 43.563 88.9576 43.5421 88.942 43.5206C88.5429 42.9734 88.0976 42.4584 87.6363 41.9628C87.5787 41.901 87.5214 41.839 87.464 41.777C87.0671 41.349 87.0671 41.349 86.6393 40.9526C86.5534 40.8769 86.47 40.7991 86.3866 40.7208C86.196 40.5419 86.0031 40.37 85.7989 40.2065C85.7069 40.1318 85.6171 40.0552 85.5276 39.9775C85.2848 39.7669 85.0353 39.567 84.7776 39.3749C84.7534 39.3568 84.7291 39.3387 84.7042 39.3201C84.5127 39.1775 84.3203 39.0362 84.1272 38.8958C84.1036 38.8786 84.08 38.8614 84.0556 38.8437C83.3725 38.3488 82.658 37.8951 81.9365 37.4586C81.9075 37.441 81.8784 37.4234 81.8485 37.4052C81.6282 37.2723 81.4063 37.1423 81.1835 37.0137C81.1511 36.995 81.1188 36.9762 81.0855 36.9569C79.8139 36.2234 78.4736 35.5552 77.1176 34.9922C77.0349 34.9578 76.9522 34.9231 76.8695 34.8884C76.0582 34.5489 75.241 34.2272 74.4162 33.922C74.3912 33.9127 74.3662 33.9034 74.3405 33.8939C74.2389 33.8502 74.2389 33.8502 74.1321 33.8313Z" fill="white"/>
</svg>
