<svg width="120" height="120" viewBox="0 0 120 120" fill="none" xmlns="http://www.w3.org/2000/svg">
<rect width="120" height="120" rx="60" fill="black"/>
<path d="M59.3341 18.5041C59.4006 18.504 59.4671 18.5039 59.5336 18.5037C59.7132 18.5034 59.8928 18.5034 60.0724 18.5033C60.185 18.5033 60.2977 18.5032 60.4103 18.5032C60.8046 18.5028 61.1988 18.5027 61.593 18.5027C61.9584 18.5027 62.3237 18.5024 62.6891 18.5018C63.0044 18.5014 63.3197 18.5012 63.635 18.5012C63.8226 18.5012 64.0102 18.5012 64.1978 18.5008C66.0236 18.4975 66.0236 18.4975 66.8567 18.6566C66.8971 18.6642 66.9374 18.6717 66.979 18.6795C67.9492 18.865 68.8969 19.1826 69.7898 19.6041C69.8193 19.618 69.8488 19.632 69.8792 19.6463C70.7107 20.0427 71.4774 20.5328 72.2201 21.0755C72.2548 21.1007 72.2895 21.126 72.3253 21.152C72.5471 21.3154 72.7583 21.4883 72.9673 21.6675C73.0681 21.7539 73.1712 21.8372 73.2748 21.9203C73.4093 22.0296 73.5335 22.1435 73.6528 22.2692C73.7162 22.3318 73.7811 22.3894 73.8487 22.4474C74.0278 22.6028 74.1943 22.7704 74.3616 22.9383C74.3926 22.9692 74.4237 23.0001 74.4557 23.032C74.6107 23.1872 74.7612 23.3442 74.9041 23.5108C74.992 23.6122 75.0846 23.709 75.1767 23.8066C75.3367 23.9776 75.4892 24.1522 75.6356 24.3352C75.7025 24.4178 75.7712 24.4984 75.8408 24.5787C76.0887 24.8658 76.3145 25.1688 76.5394 25.474C76.5949 25.5493 76.6508 25.6244 76.7067 25.6994C77.4458 26.6989 78.1186 27.7583 78.7238 28.8433C78.7443 28.8798 78.7648 28.9164 78.7859 28.954C79.3177 29.9027 79.8157 30.8634 80.2641 31.8546C80.2823 31.8945 80.3005 31.9345 80.3193 31.9756C81.0922 33.671 81.7578 35.4092 82.35 37.1757C82.3666 37.2253 82.3666 37.2253 82.3836 37.2759C82.4548 37.4919 82.4548 37.4919 82.4548 37.5692C82.4986 37.5782 82.5425 37.5872 82.5876 37.5965C82.7637 37.6357 82.9323 37.69 83.1028 37.7485C83.1508 37.7647 83.1508 37.7647 83.1998 37.7813C83.3038 37.8166 83.4078 37.8522 83.5117 37.8879C83.5474 37.9001 83.5832 37.9123 83.6201 37.9249C85.3605 38.5206 87.054 39.2168 88.7189 39.9988C88.7533 40.0149 88.7876 40.031 88.823 40.0475C89.2443 40.2453 89.6603 40.4504 90.0701 40.6709C90.1635 40.7211 90.2571 40.771 90.3507 40.8208C90.8406 41.0829 91.3221 41.3574 91.7996 41.6413C91.8318 41.6604 91.8641 41.6795 91.8973 41.6991C92.8318 42.2538 93.7441 42.8619 94.6064 43.5234C94.6581 43.5625 94.6581 43.5625 94.7109 43.6025C95.1629 43.946 95.6006 44.3067 96.0294 44.6787C96.0698 44.7136 96.1103 44.7484 96.1509 44.7831C96.5424 45.1197 96.911 45.4816 97.2764 45.846C97.2933 45.8628 97.3102 45.8797 97.3277 45.897C97.5235 46.092 97.7129 46.2903 97.8925 46.5004C97.9423 46.5555 97.9922 46.6104 98.0423 46.6651C98.188 46.827 98.3278 46.9927 98.4637 47.163C98.4949 47.2019 98.5263 47.2407 98.5579 47.2793C99.2511 48.1283 99.8497 49.0711 100.324 50.0589C100.358 50.1305 100.394 50.2014 100.43 50.2723C101.162 51.7377 101.491 53.3695 101.492 54.9985C101.492 55.0679 101.493 55.1373 101.493 55.2067C101.493 55.3943 101.493 55.5818 101.494 55.7693C101.494 55.8869 101.494 56.0046 101.494 56.1222C101.494 56.4916 101.495 56.8609 101.495 57.2303C101.495 57.6541 101.496 58.078 101.497 58.5018C101.497 58.8311 101.498 59.1603 101.498 59.4896C101.498 59.6855 101.498 59.8813 101.499 60.0772C101.503 61.6586 101.503 61.6586 101.384 62.3782C101.38 62.4041 101.376 62.43 101.371 62.4567C101.348 62.5968 101.322 62.7356 101.292 62.8744C101.279 62.9356 101.279 62.9356 101.266 62.9981C100.803 65.0995 99.7179 67.038 98.3375 68.6745C98.3222 68.6928 98.3068 68.711 98.291 68.7298C98.2404 68.7899 98.1895 68.8499 98.1385 68.9098C98.1161 68.9363 98.1161 68.9363 98.0932 68.9633C97.7667 69.3445 97.4167 69.7033 97.0613 70.0575C96.9935 70.1251 96.9258 70.1929 96.8581 70.2608C96.6497 70.4692 96.4417 70.6755 96.2153 70.8646C96.177 70.8975 96.1387 70.9304 96.1005 70.9633C96.0425 71.0131 95.9844 71.0627 95.9263 71.1123C95.8245 71.1992 95.723 71.2864 95.6226 71.3749C95.3126 71.647 94.9859 71.8934 94.6542 72.1383C94.5805 72.193 94.5073 72.2482 94.4344 72.3038C93.8682 72.735 93.2826 73.1391 92.6767 73.5124C92.5764 73.5744 92.4763 73.6368 92.3763 73.6993C91.8943 73.9992 91.407 74.2866 90.9096 74.5603C90.8769 74.5783 90.8442 74.5963 90.8105 74.6149C85.1798 77.7084 85.1798 77.7084 83.7556 77.7084C83.7497 77.7652 83.7497 77.7652 83.7438 77.8232C83.7218 77.998 83.6799 78.166 83.6363 78.3365C83.6277 78.3707 83.6191 78.4048 83.6102 78.44C83.5819 78.5519 83.5532 78.6638 83.5245 78.7756C83.5146 78.8143 83.5047 78.853 83.4945 78.8928C82.7373 81.8462 81.7657 84.738 79.6822 89.343C79.6654 89.3775 79.6487 89.412 79.6314 89.4476C79.426 89.8696 79.2053 90.2802 78.9718 90.6873C78.8816 90.8449 78.795 91.004 78.7094 91.1641C78.4906 91.5727 78.2501 91.9652 78.0008 92.3558C77.9382 92.4543 77.8761 92.5531 77.8141 92.6521C77.5647 93.0495 77.3041 93.4371 77.0316 93.819C76.9833 93.8868 76.9353 93.9548 76.8875 94.0229C76.58 94.4594 76.2539 94.883 75.9169 95.2971C75.8936 95.326 75.8703 95.3548 75.8463 95.3846C75.5225 95.7834 75.1871 96.1689 74.8347 96.5427C74.7456 96.6371 74.6577 96.7326 74.5705 96.8287C74.3165 97.1086 74.0557 97.3809 73.7678 97.6263C73.6881 97.6959 73.6108 97.7675 73.5335 97.8397C73.3195 98.0395 73.1 98.2291 72.8704 98.4111C72.8347 98.4397 72.799 98.4683 72.7633 98.4969C70.4409 100.349 67.7441 101.497 64.746 101.496C64.6847 101.496 64.6234 101.496 64.5621 101.496C64.397 101.496 64.2319 101.497 64.0668 101.497C63.9631 101.497 63.8595 101.497 63.7558 101.497C63.3925 101.497 63.0292 101.497 62.666 101.497C62.3299 101.497 61.9939 101.498 61.6578 101.498C61.3673 101.498 61.0768 101.499 60.7863 101.499C60.6137 101.499 60.4411 101.499 60.2684 101.499C58.4432 101.503 58.4432 101.503 57.5633 101.345C57.5207 101.338 57.4782 101.331 57.4343 101.323C55.5397 100.983 53.778 100.161 52.2298 99.027C52.1934 99.0004 52.1569 98.9737 52.1194 98.9462C52.0186 98.8713 51.9186 98.7955 51.819 98.7191C51.7998 98.7043 51.7805 98.6895 51.7606 98.6743C51.5237 98.4923 51.2935 98.3066 51.0733 98.1043C51.0055 98.042 50.9367 97.9814 50.867 97.9213C50.52 97.6184 50.1885 97.3 49.8634 96.9738C49.8032 96.9134 49.7428 96.8532 49.6823 96.793C49.4859 96.5968 49.2938 96.3994 49.1149 96.1868C49.0828 96.1498 49.0507 96.1127 49.0185 96.0758C48.5884 95.5771 48.1755 95.0691 47.7842 94.5393C47.7294 94.4657 47.6742 94.3927 47.6186 94.3198C47.3634 93.9844 47.1246 93.6404 46.8921 93.2889C46.8742 93.262 46.8563 93.2351 46.8379 93.2073C46.5617 92.7911 46.2897 92.373 46.0342 91.9436C46.0158 91.9129 45.9974 91.8821 45.9785 91.8504C45.8349 91.6091 45.6943 91.3661 45.555 91.1224C45.5349 91.0875 45.5149 91.0527 45.4943 91.0168C44.8184 89.8362 44.2097 88.6079 43.6723 87.3583C43.6634 87.3376 43.6545 87.317 43.6454 87.2958C43.4032 86.7347 43.1741 86.1685 42.9492 85.6002C42.9381 85.5722 42.927 85.5442 42.9156 85.5154C42.4617 84.3682 42.4617 84.3682 42.6667 83.7711C42.825 83.407 43.0951 83.1229 43.4649 82.9711C43.8199 82.8613 44.1534 82.8566 44.5222 82.8598C44.5867 82.8598 44.6512 82.8599 44.7157 82.8599C44.85 82.86 44.9842 82.8605 45.1185 82.8615C45.2899 82.8626 45.4612 82.8629 45.6325 82.8628C45.7654 82.8628 45.8982 82.8632 46.0311 82.8637C46.0942 82.8639 46.1574 82.8641 46.2205 82.8641C47.0068 82.8654 47.0068 82.8655 47.3456 83.0424C47.3787 83.0592 47.4117 83.0761 47.4458 83.0934C47.7513 83.274 47.9181 83.5291 48.046 83.8553C48.0547 83.8774 48.0634 83.8995 48.0723 83.9223C48.1638 84.1568 48.2498 84.3935 48.3362 84.63C48.7935 85.8808 49.3012 87.111 49.8679 88.3164C49.8856 88.354 49.9033 88.3916 49.9214 88.4304C50.0384 88.6786 50.1579 88.9255 50.2787 89.1719C50.2988 89.2131 50.319 89.2543 50.3391 89.2955C50.6057 89.8403 50.8843 90.3746 51.1881 90.8998C51.2469 91.0025 51.3036 91.1062 51.3601 91.2101C51.9471 92.286 52.6263 93.3229 53.3594 94.3048C53.3943 94.352 53.4293 94.3991 53.4642 94.4463C53.7749 94.8645 54.0944 95.274 54.4331 95.6699C54.5192 95.7709 54.6026 95.8739 54.6858 95.9772C54.7879 96.1028 54.8933 96.2192 55.0099 96.3312C55.0706 96.3919 55.1263 96.4548 55.1821 96.52C55.304 96.6602 55.4323 96.7926 55.5639 96.9238C55.5872 96.9471 55.6105 96.9705 55.6346 96.9945C55.6835 97.0435 55.7325 97.0924 55.7815 97.1412C55.8558 97.2154 55.93 97.2897 56.0041 97.364C56.052 97.4119 56.1 97.4598 56.1479 97.5076C56.1697 97.5295 56.1915 97.5513 56.214 97.5739C56.3637 97.7228 56.5196 97.8627 56.6797 98.0005C56.7156 98.0321 56.7514 98.0638 56.7872 98.0956C57.1244 98.3918 57.4813 98.6597 57.8435 98.9244C57.8802 98.9514 57.8802 98.9514 57.9177 98.9789C59.016 99.7834 60.7749 101.025 62.1907 101.046C62.3239 101.018 62.4512 100.976 62.5801 100.933C62.6176 100.92 62.6552 100.908 62.6939 100.895C64.2272 100.377 65.6144 99.586 66.8802 98.5822C66.9038 98.5636 66.9273 98.545 66.9516 98.5258C67.2386 98.2982 67.5157 98.0635 67.7825 97.8126C67.8247 97.7738 67.8674 97.7355 67.9103 97.6975C68.1449 97.4899 68.3674 97.2718 68.5885 97.05C68.6496 96.9887 68.7109 96.9276 68.7723 96.8665C68.9705 96.6685 69.1635 96.4691 69.3448 96.2553C69.3945 96.2003 69.4444 96.1454 69.4945 96.0906C69.6279 95.9428 69.7546 95.7907 69.8797 95.6359C69.9505 95.5494 70.0227 95.4643 70.0957 95.3797C70.3071 95.1338 70.5024 94.8778 70.6946 94.6167C70.7472 94.5456 70.8006 94.4751 70.8542 94.4046C71.4075 93.6726 71.9115 92.8966 72.3912 92.1147C72.4043 92.0934 72.4175 92.0721 72.431 92.0501C73.2103 90.7791 73.9133 89.4509 74.528 88.0928C74.5818 87.9745 74.6367 87.8567 74.6919 87.739C75.4575 86.0914 76.0846 84.3745 76.6442 82.6471C76.6706 82.5657 76.6971 82.4844 76.7237 82.4031C76.9741 81.6352 77.2051 80.8631 77.4213 80.0849C77.4304 80.0523 77.4395 80.0197 77.4488 79.9862C77.4658 79.9249 77.4827 79.8637 77.4996 79.8024C77.5562 79.598 77.5562 79.598 77.5942 79.522C77.5606 79.5296 77.5271 79.5371 77.4925 79.5449C74.6311 80.1862 71.7466 80.6743 68.8313 80.9935C68.7816 80.9989 68.7816 80.9989 68.7308 81.0045C68.5126 81.0285 68.2944 81.0518 68.0761 81.0747C68.0486 81.0777 68.021 81.0806 67.9926 81.0836C67.9153 81.0918 67.8378 81.0998 67.7604 81.1076C67.7174 81.1121 67.6744 81.1165 67.6301 81.121C67.4711 81.1321 67.3133 81.1323 67.154 81.1304C67.1543 81.1596 67.1545 81.1889 67.1547 81.219C67.1568 81.4958 67.1584 81.7727 67.1594 82.0496C67.1599 82.1919 67.1606 82.3342 67.1618 82.4765C67.1629 82.614 67.1635 82.7516 67.1638 82.8892C67.164 82.9414 67.1643 82.9937 67.1649 83.0459C67.1702 83.5636 67.0792 83.9649 66.7219 84.3555C66.4407 84.6231 66.1102 84.7294 65.7314 84.7341C65.6929 84.7356 65.6929 84.7356 65.6537 84.7371C65.288 84.7411 64.9843 84.5705 64.6767 84.3897C64.6074 84.3499 64.5382 84.31 64.4689 84.2702C64.4325 84.2493 64.3961 84.2284 64.3587 84.2068C64.1593 84.093 63.9579 83.9827 63.7567 83.8722C63.6721 83.8256 63.5875 83.7791 63.5029 83.7325C63.482 83.721 63.461 83.7094 63.4395 83.6975C63.1065 83.5142 62.7745 83.3293 62.4424 83.1446C62.3264 83.0802 62.2104 83.0158 62.0944 82.9515C61.7211 82.7443 61.348 82.5368 60.9755 82.328C60.3676 81.9874 59.7589 81.6481 59.1463 81.3157C58.89 81.1762 58.6362 81.0325 58.3825 80.8883C58.1473 80.755 57.9104 80.6254 57.6724 80.4973C57.3935 80.3468 57.115 80.1957 56.838 80.0418C56.7907 80.0159 56.7907 80.0159 56.7425 79.9896C56.3157 79.7507 55.9773 79.4766 55.8261 78.9959C55.7216 78.5412 55.7987 78.1556 56.0331 77.7604C56.226 77.5033 56.4494 77.3586 56.731 77.208C56.8082 77.1658 56.8853 77.1236 56.9624 77.0814C57.0205 77.0498 57.0205 77.0498 57.0798 77.0176C57.2484 76.9254 57.4154 76.8304 57.5825 76.7353C58.2068 76.3818 58.8352 76.0355 59.4636 75.6892C59.8786 75.4605 60.2929 75.2305 60.7071 75.0003C60.9378 74.872 61.1686 74.7439 61.3993 74.6158C61.591 74.5093 61.7827 74.4028 61.9744 74.2963C62.3713 74.0756 62.7685 73.8555 63.1663 73.6363C63.4783 73.4644 63.7902 73.2923 64.1018 73.1195C64.1587 73.088 64.2156 73.0565 64.2726 73.025C64.4852 72.907 64.6957 72.7862 64.9045 72.6617C65.3008 72.4404 65.7062 72.3698 66.1485 72.4921C66.5767 72.6377 66.8498 72.9066 67.0487 73.3036C67.1522 73.5649 67.1634 73.8009 67.1607 74.079C67.1606 74.1174 67.1605 74.1557 67.1604 74.1953C67.1601 74.3169 67.1592 74.4386 67.1583 74.5603C67.158 74.6431 67.1577 74.7259 67.1574 74.8087C67.1566 75.0111 67.1555 75.2134 67.154 75.4157C69.4685 75.1677 71.7738 74.8811 74.0667 74.476C74.1693 74.4579 74.2719 74.44 74.3746 74.422C75.2357 74.2706 76.0904 74.0933 76.9438 73.9037C76.9781 73.8961 76.9781 73.8961 77.013 73.8883C77.524 73.7748 78.0339 73.6585 78.5404 73.5264C78.5717 73.5183 78.603 73.5103 78.6352 73.502C78.676 73.4913 78.676 73.4913 78.7176 73.4804C78.7922 73.4652 78.7922 73.4652 78.9291 73.4652C78.9309 73.4404 78.9326 73.4156 78.9344 73.39C78.9536 73.1377 78.9854 72.8899 79.0257 72.6402C79.0384 72.5595 79.0511 72.4788 79.0638 72.3981C79.0737 72.3349 79.0737 72.3349 79.0839 72.2704C79.6284 68.8103 79.9573 65.2881 79.9992 60.3112C79.9988 60.0842 79.999 59.8571 79.9994 59.63C80.0012 58.4117 79.9751 57.1963 79.9218 55.9792C79.9205 55.9489 79.9192 55.9185 79.9178 55.8873C79.9142 55.8035 79.9105 55.7198 79.9068 55.636C79.9052 55.6006 79.9052 55.6006 79.9036 55.5645C79.7929 53.1285 79.5301 50.6905 79.1688 48.2798C79.1598 48.2204 79.1598 48.2204 79.1507 48.1597C78.8419 46.1088 78.4536 44.0692 77.9707 42.0519C74.7665 41.281 71.5085 40.7155 64.0106 40.0728C63.9168 40.068 63.823 40.0628 63.7293 40.0574C62.5928 39.9947 61.4524 39.9917 60.3145 39.9924C60.2828 39.9924 60.2512 39.9924 60.2186 39.9924C58.9467 39.9926 57.6767 40.0156 56.4059 40.0672C56.3627 40.069 56.3196 40.0707 56.2752 40.0725C53.0894 40.2031 49.9125 40.5392 46.7677 41.0643C46.5892 41.0938 46.5892 41.0938 46.5134 41.0938C46.5089 41.1341 46.5044 41.1743 46.4997 41.2158C46.4831 41.3483 46.4564 41.4756 46.4241 41.6053C46.4125 41.6528 46.4009 41.7002 46.3893 41.7476C46.3831 41.7729 46.3768 41.7982 46.3704 41.8242C45.6118 44.9239 45.0676 48.0956 44.6482 52.2336C44.6449 52.2688 44.6416 52.304 44.6383 52.3403C44.6322 52.4061 44.6262 52.4719 44.6204 52.5376C44.6177 52.5665 44.6151 52.5953 44.6123 52.625C44.6101 52.6501 44.6078 52.6752 44.6055 52.701C44.5965 52.7626 44.5965 52.7626 44.5623 52.831C44.5832 52.8307 44.6041 52.8304 44.6256 52.8301C44.845 52.827 45.0643 52.825 45.2837 52.8235C45.3653 52.8228 45.447 52.8219 45.5286 52.8207C46.1655 52.8116 46.6722 52.8167 47.1636 53.2705C47.4247 53.5444 47.5457 53.8783 47.551 54.2511C47.5529 54.3183 47.5529 54.3183 47.5549 54.3869C47.5369 54.7518 47.3483 55.0735 47.1702 55.3825C47.1474 55.4227 47.1246 55.4629 47.1019 55.5032C47.0548 55.5865 47.0075 55.6696 46.9602 55.7528C46.8496 55.9471 46.7416 56.1429 46.6332 56.3385C46.5904 56.4155 46.5476 56.4925 46.5048 56.5695C46.4837 56.6076 46.4625 56.6457 46.4407 56.685C45.7347 57.9553 45.7347 57.9553 45.6705 58.0708C45.6277 58.1479 45.5849 58.2249 45.5421 58.302C45.4356 58.4936 45.329 58.6853 45.2224 58.8769C45.0126 59.2541 44.8032 59.6316 44.5949 60.0097C44.3939 60.3743 44.1918 60.7382 43.9879 61.1012C43.8413 61.3625 43.6957 61.6243 43.5504 61.8863C43.3351 62.2743 43.1176 62.6611 42.8984 63.0469C42.8547 63.1241 42.8114 63.2015 42.7683 63.2791C42.7499 63.312 42.7499 63.312 42.7311 63.3456C42.6999 63.4013 42.6689 63.4571 42.6379 63.5129C42.4345 63.8371 42.1224 64.0848 41.7466 64.1764C41.3154 64.2471 40.9196 64.1848 40.5488 63.9501C40.1967 63.682 40.0151 63.2705 39.8109 62.8889C39.7061 62.6934 39.5975 62.5003 39.4877 62.3076C39.1355 61.6876 38.7932 61.062 38.4523 60.4357C38.2541 60.0722 38.0524 59.7106 37.8509 59.3489C37.785 59.2305 37.7193 59.112 37.6536 58.9936C37.4541 58.6339 37.254 58.2746 37.051 57.9168C36.8604 57.581 36.6734 57.2432 36.4872 56.905C36.4639 56.8628 36.4407 56.8206 36.4175 56.7784C36.4059 56.7575 36.3944 56.7366 36.3826 56.715C36.2816 56.5318 36.18 56.349 36.0782 56.1663C35.9939 56.0148 35.9099 55.8633 35.8258 55.7118C35.7855 55.6393 35.7451 55.5668 35.7046 55.4944C35.6476 55.3924 35.5908 55.2901 35.5342 55.1879C35.5174 55.1581 35.5006 55.1283 35.4834 55.0976C35.2628 54.6976 35.1711 54.3047 35.2881 53.849C35.44 53.4226 35.7184 53.133 36.1182 52.9351C36.4195 52.8182 36.7089 52.822 37.0274 52.8243C37.08 52.8245 37.1326 52.8245 37.1851 52.8246C37.3227 52.8249 37.4602 52.8255 37.5977 52.8263C37.7384 52.827 37.879 52.8273 38.0197 52.8277C38.2951 52.8284 38.5705 52.8296 38.8459 52.831C38.8485 52.7973 38.8511 52.7636 38.8538 52.7289C39.1207 49.2804 39.6976 45.863 40.4547 42.4283C37.3627 43.2672 34.3221 44.3065 29.0763 46.894C28.9836 46.9476 28.8903 46.9999 28.7967 47.052C27.8583 47.5739 26.9552 48.1502 26.0823 48.7754C26.0324 48.8111 25.9825 48.8467 25.9325 48.8823C25.586 49.1291 25.2457 49.3817 24.9143 49.6486C24.8825 49.6742 24.8507 49.6997 24.8179 49.726C24.4709 50.0073 24.1313 50.2981 23.8011 50.5989C23.7305 50.6624 23.6592 50.7248 23.5875 50.7871C23.4397 50.9161 23.2963 51.0495 23.1536 51.1842C23.1154 51.2203 23.1154 51.2203 23.0764 51.2571C22.8352 51.4852 22.5977 51.7135 22.3814 51.9658C22.3109 52.0462 22.2384 52.1244 22.1654 52.2025C21.9656 52.4165 21.7768 52.6363 21.594 52.8652C21.5621 52.9043 21.5301 52.9433 21.4982 52.9823C20.4101 54.3152 19.5102 55.8656 19.0135 57.518C18.9935 57.5843 18.9726 57.6503 18.9516 57.7162C18.9153 57.8647 18.9413 57.9806 18.9916 58.1226C19.0036 58.159 19.0036 58.159 19.0158 58.1961C19.0422 58.2751 19.0697 58.3537 19.0974 58.4323C19.1114 58.473 19.1114 58.473 19.1256 58.5146C19.5934 59.8761 20.287 61.1246 21.149 62.2755C21.1721 62.3064 21.1721 62.3064 21.1955 62.3379C21.4854 62.7253 21.7972 63.0927 22.1251 63.4482C22.1911 63.5207 22.2554 63.594 22.3194 63.6682C22.4422 63.8087 22.5711 63.9416 22.7032 64.0732C22.7265 64.0966 22.7498 64.1199 22.7738 64.144C22.8228 64.193 22.8718 64.2419 22.9208 64.2907C22.9951 64.3649 23.0693 64.4392 23.1434 64.5135C23.1913 64.5614 23.2393 64.6092 23.2872 64.6571C23.3199 64.6899 23.3199 64.6899 23.3532 64.7233C23.503 64.8723 23.6587 65.0124 23.819 65.1499C23.8572 65.1833 23.8955 65.2166 23.9337 65.2499C24.1493 65.4366 24.3678 65.6181 24.5931 65.7929C24.722 65.8929 24.8488 65.9952 24.9746 66.0991C25.2614 66.3353 25.5574 66.5556 25.8609 66.7699C25.9416 66.827 26.022 66.8844 26.1023 66.9419C26.5519 67.2618 27.0146 67.5596 27.4816 67.8533C27.528 67.8826 27.528 67.8826 27.5753 67.9125C28.3236 68.3847 29.0924 68.8201 29.8743 69.2342C29.9755 69.2879 30.0766 69.342 30.1776 69.3961C30.6454 69.645 31.1228 69.8699 31.6047 70.0901C31.7224 70.1443 31.8396 70.1994 31.9567 70.2549C33.1726 70.8301 34.4287 71.3385 35.6978 71.7838C35.7372 71.7976 35.7766 71.8115 35.8171 71.8257C35.8859 71.8496 35.9549 71.873 36.024 71.8959C36.4605 72.0454 36.7908 72.3248 36.9999 72.7378C37.0879 72.9514 37.1103 73.1366 37.1096 73.3654C37.1098 73.3955 37.1099 73.4257 37.1101 73.4568C37.1106 73.5561 37.1106 73.6554 37.1105 73.7546C37.1106 73.824 37.1108 73.8935 37.1109 73.9629C37.1112 74.1082 37.1112 74.2536 37.111 74.3989C37.1108 74.5845 37.1114 74.7701 37.1122 74.9557C37.1127 75.099 37.1127 75.2424 37.1126 75.3857C37.1126 75.4541 37.1128 75.5225 37.1131 75.5909C37.1156 76.1428 37.0757 76.5968 36.6766 77.0176C36.3679 77.3046 36.0301 77.422 35.6083 77.4192C35.3099 77.4063 35.0479 77.3035 34.7725 77.1951C34.7365 77.1812 34.7004 77.1672 34.6632 77.1528C33.0536 76.5284 31.4509 75.8369 29.9305 75.0176C29.8333 74.9654 29.7357 74.914 29.6382 74.8625C29.1292 74.5928 28.6315 74.3073 28.1382 74.0099C28.0369 73.9489 27.9352 73.8886 27.8334 73.8284C26.8903 73.2677 25.9839 72.6352 25.1197 71.9596C25.0807 71.9295 25.0417 71.8993 25.0027 71.8692C24.7746 71.6925 24.5524 71.5104 24.3343 71.3214C24.2107 71.2144 24.0854 71.1103 23.958 71.0079C23.8327 70.9062 23.7168 70.8012 23.6051 70.685C23.5499 70.6298 23.4932 70.5801 23.4333 70.53C23.2206 70.3451 23.0239 70.1433 22.8251 69.9439C22.7559 69.8745 22.6865 69.8053 22.6171 69.7362C22.4058 69.5251 22.1966 69.3144 22.0048 69.0852C21.9715 69.0469 21.9382 69.0087 21.9048 68.9705C21.6839 68.7156 21.4705 68.4562 21.265 68.1888C21.2333 68.1476 21.2014 68.1064 21.1694 68.0654C20.2784 66.9221 19.5671 65.6306 19.0952 64.2602C19.0844 64.2293 19.0736 64.1983 19.0624 64.1664C18.8039 63.4215 18.6343 62.6485 18.5476 61.8649C18.5446 61.838 18.5416 61.8112 18.5385 61.7835C18.5051 61.4413 18.508 61.0993 18.5078 60.7558C18.5077 60.6857 18.5075 60.6157 18.5073 60.5456C18.5069 60.3561 18.5066 60.1665 18.5065 59.977C18.5064 59.8582 18.5062 59.7393 18.5061 59.6205C18.5056 59.2474 18.5053 58.8742 18.5052 58.5011C18.505 58.0728 18.5044 57.6445 18.5034 57.2163C18.5027 56.8837 18.5023 56.5511 18.5023 56.2185C18.5022 56.0206 18.502 55.8227 18.5014 55.6248C18.4967 54.0299 18.4967 54.0299 18.616 53.3101C18.6201 53.2844 18.6242 53.2588 18.6284 53.2324C18.6506 53.0941 18.6764 52.9572 18.7059 52.8203C18.7145 52.7797 18.7232 52.739 18.7321 52.6971C19.2312 50.4395 20.4252 48.4515 21.9214 46.7164C21.9374 46.6978 21.9535 46.6792 21.97 46.6599C22.2829 46.3008 22.6112 45.9569 22.9486 45.6208C23.0066 45.5631 23.0643 45.5052 23.1221 45.4473C23.3144 45.2549 23.5088 45.0683 23.7163 44.8921C23.7749 44.8395 23.8334 44.7868 23.8917 44.7339C24.2483 44.4131 24.2483 44.4131 24.3324 44.4131C24.3324 44.3905 24.3324 44.3679 24.3324 44.3446C24.3856 44.2949 24.3856 44.2949 24.4651 44.2334C24.4964 44.209 24.5278 44.1845 24.5601 44.1594C24.5782 44.1455 24.5962 44.1315 24.6148 44.1172C24.6807 44.0662 24.7463 44.0147 24.8118 43.9631C25.6401 43.3126 26.4957 42.7012 27.3895 42.1436C27.4809 42.0866 27.5721 42.0292 27.6633 41.9719C28.5686 41.4045 29.5091 40.8967 30.4596 40.4094C30.5198 40.3784 30.5198 40.3784 30.5812 40.3469C31.2823 39.9869 31.9947 39.6585 32.7176 39.3447C32.8215 39.2995 32.9251 39.2537 33.0288 39.208C35.6906 38.0424 38.4781 37.1753 41.29 36.4568C41.3557 36.4399 41.4213 36.4228 41.4869 36.4055C41.628 36.3683 41.7676 36.3339 41.9117 36.3102C42.1536 36.2693 42.1536 36.2693 42.3341 36.1142C42.3762 36.0175 42.4087 35.9229 42.4352 35.8209C42.46 35.7263 42.4896 35.6334 42.519 35.5402C42.535 35.4891 42.5509 35.4379 42.5665 35.3867C42.6695 35.052 42.8018 34.7287 42.9321 34.4039C42.9575 34.3403 42.9829 34.2766 43.0082 34.2129C43.5081 32.9604 44.0528 31.736 44.6543 30.5286C44.6719 30.4931 44.6896 30.4575 44.7077 30.4209C44.9474 29.9389 45.2012 29.4671 45.4698 29.0006C45.5393 28.8793 45.6078 28.7575 45.6764 28.6357C46.3854 27.3776 47.2036 26.1857 48.088 25.0449C48.1043 25.0238 48.1206 25.0026 48.1374 24.9808C48.4444 24.5828 48.7685 24.2009 49.107 23.8294C49.1708 23.7586 49.2334 23.6871 49.2959 23.6152C49.4215 23.4715 49.5508 23.3317 49.6818 23.1928C49.7054 23.1678 49.729 23.1428 49.7533 23.117C50.3474 22.4898 50.3474 22.4898 50.656 22.2285C50.7411 22.1556 50.8231 22.0796 50.9055 22.0037C51.0905 21.8353 51.2818 21.677 51.4767 21.5204C51.5151 21.4888 51.5534 21.4571 51.5917 21.4255C51.903 21.1699 52.2282 20.9403 52.5631 20.7168C52.6347 20.6688 52.7058 20.6203 52.7768 20.5716C53.0756 20.3674 53.3831 20.1861 53.7017 20.0147C53.7308 19.9989 53.7599 19.9831 53.79 19.9668C54.4557 19.6071 55.1373 19.2894 55.8582 19.0566C55.8873 19.047 55.9163 19.0375 55.9463 19.0276C57.0519 18.6666 58.1732 18.5037 59.3341 18.5041ZM61.7874 19.0002C61.7615 19.0087 61.7356 19.0173 61.7088 19.0261C61.624 19.0544 61.5394 19.0832 61.4548 19.1122C61.4257 19.1221 61.3967 19.132 61.3668 19.1422C60.8073 19.3343 60.284 19.5679 59.7604 19.8436C59.7249 19.8621 59.6894 19.8806 59.6529 19.8997C59.2662 20.1024 58.8882 20.3149 58.5281 20.5622C58.5058 20.5776 58.4834 20.5929 58.4604 20.6087C57.7447 21.1028 57.0556 21.6284 56.4225 22.2256C56.3425 22.3004 56.2606 22.3732 56.1791 22.4464C55.9896 22.6199 55.8069 22.7998 55.625 22.9811C55.5976 23.0083 55.5702 23.0356 55.5419 23.0636C55.3969 23.209 55.2571 23.3568 55.1239 23.5131C55.0687 23.576 55.0108 23.6347 54.9511 23.6933C54.824 23.8186 54.7074 23.9511 54.5917 24.0868C54.5775 24.1033 54.5634 24.1198 54.5488 24.1369C54.501 24.1928 54.4532 24.2489 54.4055 24.305C54.3908 24.3222 54.3761 24.3395 54.3609 24.3573C53.8877 24.9161 53.4465 25.5042 53.0299 26.1062C52.9841 26.1724 52.9381 26.2383 52.8919 26.3042C51.5245 28.267 50.3861 30.3858 49.423 32.5732C49.4051 32.6136 49.3873 32.654 49.3689 32.6957C49.1548 33.1831 48.9521 33.6749 48.7533 34.1687C48.7378 34.207 48.7378 34.207 48.722 34.2462C48.6125 34.5177 48.5059 34.7879 48.4303 35.0712C48.8546 35.0231 49.2788 34.9738 49.7027 34.922C51.7882 34.6675 53.8752 34.4676 55.9737 34.3611C56.0127 34.3591 56.0518 34.3571 56.092 34.355C57.3998 34.2884 58.7089 34.2777 60.0181 34.2778C60.1752 34.2778 60.3323 34.2776 60.4894 34.2771C61.6287 34.2738 62.7642 34.2989 63.9022 34.3526C63.9309 34.3539 63.9596 34.3553 63.9891 34.3566C64.3404 34.373 64.6915 34.3916 65.0425 34.4125C65.0661 34.4139 65.0897 34.4152 65.114 34.4167C66.2077 34.481 67.2968 34.5791 68.3863 34.6948C68.4255 34.6989 68.4647 34.7031 68.5051 34.7074C70.8558 34.9569 73.1929 35.3071 75.5115 35.7679C75.5427 35.774 75.5739 35.7802 75.606 35.7865C75.6632 35.7978 75.7203 35.8093 75.7775 35.8209C75.9055 35.8462 76.0258 35.8648 76.1565 35.8582C76.0706 35.5447 75.9552 35.2422 75.8399 34.9386C75.8295 34.9111 75.8191 34.8837 75.8083 34.8554C75.4447 33.8978 75.0434 32.9565 74.6162 32.0257C74.597 31.9838 74.5778 31.9418 74.5586 31.8999C74.1416 30.9902 73.7013 30.0934 73.2127 29.2197C73.1781 29.1572 73.1435 29.0947 73.1089 29.0322C72.2193 27.4344 71.1992 25.9042 70.0294 24.4974C70.0043 24.4673 70.0043 24.4673 69.9787 24.4365C69.7727 24.1896 69.5612 23.9483 69.3448 23.7104C69.2977 23.6576 69.2506 23.6049 69.2036 23.5521C69.1481 23.4907 69.0924 23.4294 69.0367 23.3682C69.0188 23.3485 69.0009 23.3289 68.9824 23.3086C68.6719 22.9687 68.3478 22.6478 68.0091 22.3359C67.9465 22.278 67.8844 22.2195 67.8225 22.1608C67.5853 21.9368 67.3375 21.7329 67.0789 21.5343C67.0159 21.4852 66.9538 21.4351 66.892 21.3846C66.6115 21.1556 66.3234 20.9447 66.0223 20.7437C65.9595 20.7014 65.8972 20.6584 65.835 20.6152C65.3132 20.2549 64.7521 19.9443 64.1794 19.6726C64.1292 19.6486 64.0792 19.6243 64.0294 19.5998C63.6146 19.3957 63.1912 19.2329 62.7534 19.0865C62.7284 19.0781 62.7034 19.0697 62.6776 19.061C62.6059 19.037 62.5341 19.0134 62.4623 18.99C62.4206 18.9764 62.379 18.9628 62.3361 18.9488C62.1311 18.8951 61.985 18.9338 61.7874 19.0002ZM84.1321 43.8313C84.1553 44.0725 84.1956 44.307 84.2424 44.5446C84.258 44.6253 84.2737 44.7061 84.2893 44.7868C84.2975 44.8291 84.3057 44.8713 84.3142 44.9148C84.5 45.874 84.6681 46.8351 84.8167 47.8008C84.8245 47.8513 84.8245 47.8513 84.8324 47.9028C84.9991 48.9839 85.1397 50.0673 85.2617 51.1543C85.2655 51.1877 85.2692 51.2211 85.2731 51.2555C85.417 52.5291 85.5189 53.806 85.5994 55.085C85.6038 55.1555 85.6083 55.2259 85.6129 55.2964C85.7113 56.846 85.7164 58.3966 85.7173 59.9487C85.7174 60.0248 85.7175 60.1009 85.7176 60.1771C85.7193 61.4938 85.7022 62.8078 85.6382 64.1234C85.6369 64.1503 85.6356 64.1771 85.6343 64.2048C85.6193 64.5158 85.6012 64.8265 85.5804 65.1371C85.5763 65.2006 85.5763 65.2006 85.572 65.2653C85.4494 67.1142 85.2575 68.9554 85.0153 70.7923C84.9821 71.0444 84.9504 71.2966 84.9194 71.549C85.0608 71.5291 85.1845 71.4971 85.3172 71.4447C85.3543 71.4301 85.3913 71.4156 85.4296 71.4006C85.4695 71.3846 85.5094 71.3686 85.5505 71.3522C85.5931 71.3352 85.6358 71.3183 85.6784 71.3014C85.8136 71.2475 85.9484 71.193 86.0832 71.1383C86.1047 71.1296 86.1262 71.1209 86.1484 71.1119C87.986 70.365 89.7943 69.5072 91.499 68.4915C91.5939 68.4352 91.6891 68.3797 91.7845 68.3245C92.213 68.0754 92.6299 67.8115 93.043 67.5376C93.1283 67.481 93.2138 67.4248 93.2994 67.3687C94.0478 66.8766 94.7784 66.3448 95.4622 65.7659C95.4807 65.7502 95.4993 65.7345 95.5184 65.7184C95.7496 65.5225 95.9786 65.3243 96.203 65.1205C96.2579 65.0707 96.3132 65.0211 96.3688 64.9719C96.548 64.8127 96.7188 64.6477 96.8872 64.4771C96.9583 64.4069 97.031 64.3417 97.1074 64.2774C97.2413 64.1628 97.3554 64.0346 97.4717 63.9025C97.5481 63.8177 97.6272 63.7372 97.7085 63.6571C97.8457 63.5215 97.973 63.3806 98.0979 63.2337C98.1253 63.2021 98.1526 63.1706 98.1808 63.1381C99.3732 61.7563 100.356 60.1592 100.934 58.424C100.96 58.3442 100.989 58.265 101.019 58.1864C101.131 57.865 101.096 57.6614 100.975 57.348C100.959 57.3036 100.943 57.2592 100.927 57.2148C100.877 57.0757 100.823 56.9379 100.768 56.8004C100.759 56.778 100.75 56.7555 100.741 56.7323C100.287 55.6058 99.702 54.5661 98.9879 53.5838C98.9727 53.563 98.9576 53.5421 98.942 53.5206C98.5429 52.9734 98.0976 52.4584 97.6363 51.9628C97.5787 51.901 97.5214 51.839 97.464 51.777C97.0671 51.349 97.0671 51.349 96.6393 50.9526C96.5534 50.8769 96.47 50.7991 96.3866 50.7208C96.196 50.5419 96.0031 50.37 95.7989 50.2065C95.7069 50.1318 95.6171 50.0552 95.5276 49.9775C95.2848 49.7669 95.0353 49.567 94.7776 49.3749C94.7534 49.3568 94.7291 49.3387 94.7042 49.3201C94.5127 49.1775 94.3203 49.0362 94.1272 48.8958C94.1036 48.8786 94.08 48.8614 94.0556 48.8437C93.3725 48.3488 92.658 47.8951 91.9365 47.4586C91.9075 47.441 91.8784 47.4234 91.8485 47.4052C91.6282 47.2723 91.4063 47.1423 91.1835 47.0137C91.1511 46.995 91.1188 46.9762 91.0855 46.9569C89.8139 46.2234 88.4736 45.5552 87.1176 44.9922C87.0349 44.9578 86.9522 44.9231 86.8695 44.8884C86.0582 44.5489 85.241 44.2272 84.4162 43.922C84.3912 43.9127 84.3662 43.9034 84.3405 43.8939C84.2389 43.8502 84.2389 43.8502 84.1321 43.8313Z" fill="white"/>
</svg>
